<svg id="Layer_1" data-name="Layer 1" xmlns="http://www.w3.org/2000/svg" viewBox="0 0 264.72 343.04"><defs><style>.cls-1{fill:#88cedd;}.cls-2{fill:#1d1d1b;}.cls-3{fill:none;stroke:#1d1d1b;stroke-miterlimit:10;stroke-width:0.93px;}</style></defs><path class="cls-1" d="M157.23,20.76c-25.18,0-48.84,4.14-69.41,13.39H39V312h22.5c1.6,2.64,6.72,4.58,12.86,4.58s11.26-1.94,12.86-4.58h.57V239.48A169.41,169.41,0,0,0,157.23,254c79.31,0,143.61-52.22,143.61-116.63S236.54,20.76,157.23,20.76Z" transform="translate(-37.57 -20.76)"/><path class="cls-2" d="M53.07,246v37.69q0,9.63.4,14.21a30.54,30.54,0,0,0,1.52,7.7,10.35,10.35,0,0,0,2.29,4,5.76,5.76,0,0,0,3.38,1.56v2.18H37.57v-2.18a4.72,4.72,0,0,0,3.29-1.46,9.7,9.7,0,0,0,2.42-3.92,34.19,34.19,0,0,0,1.45-8q.44-5.1.43-14.07V214.11q0-6-.25-12.56-.36-8.31-3.11-12.37a5.91,5.91,0,0,0-4.23-2.55v-2.17H75.33l1,37.84-.83.47c-.61-4.78-1.16-15.52-1.66-17.91q-1.71-8.22-4.78-12.75A9.9,9.9,0,0,0,65,188.42a15.88,15.88,0,0,0-6.36-1h-5.6v55.73h1.45q6.39,0,9.28-7.46a34.77,34.77,0,0,0,1.92-7.6,105.27,105.27,0,0,0,.87-11.48l.83.09L67.2,273.9h-.87A113.21,113.21,0,0,0,65,259a25.1,25.1,0,0,0-2.91-8.46,9,9,0,0,0-3.56-3.44A11.8,11.8,0,0,0,53.07,246Z" transform="translate(-37.57 -20.76)"/><path class="cls-2" d="M91.84,229.84l.23,7.44-.31,0a15.48,15.48,0,0,0-.57-3.13A6.77,6.77,0,0,0,90,232a3.4,3.4,0,0,0-1.48-1.12,6.68,6.68,0,0,0-2.27-.32H83.21v13.52H84a4.76,4.76,0,0,0,1.83-.27,2.08,2.08,0,0,0,1-1,5.08,5.08,0,0,0,.56-1.54,21.84,21.84,0,0,0,.3-2.63l.31,0L88,250.76h-.3a19.19,19.19,0,0,0-.36-2.8,6.43,6.43,0,0,0-.65-1.8,2.53,2.53,0,0,0-1-1.06,3.52,3.52,0,0,0-1.63-.34h-.76v5.17c0,2.06,0,3.56.1,4.49a11.42,11.42,0,0,0,.36,2.36,4.51,4.51,0,0,0,1.38,2.38,3.79,3.79,0,0,0,2.45.75,4.87,4.87,0,0,0,2.68-.68A5,5,0,0,0,92,257.1a10.8,10.8,0,0,0,.78-2.21,31.25,31.25,0,0,0,.55-3.27l.31,0-.17,9H77.48v-.51a2.84,2.84,0,0,0,1.24-.37,2.54,2.54,0,0,0,.85-.94,5.19,5.19,0,0,0,.56-1.84,25.76,25.76,0,0,0,.16-3.42V236.92a25.86,25.86,0,0,0-.16-3.42,5.25,5.25,0,0,0-.56-1.84,2.44,2.44,0,0,0-.84-.94,2.68,2.68,0,0,0-1.25-.36v-.52Z" transform="translate(-37.57 -20.76)"/><path class="cls-2" d="M97.68,313l.11-39,.83.09a181.88,181.88,0,0,0,3.62,23.47q3.93,15.82,9.9,15.83,4.15,0,6.86-7.28t2.71-18.42a84.62,84.62,0,0,0-.59-9.82,57.56,57.56,0,0,0-1.61-8.59,32.91,32.91,0,0,0-3-7.09,77.89,77.89,0,0,0-5.8-8.59,83.63,83.63,0,0,1-5.25-7.65,36.09,36.09,0,0,1-3-6.33q-3.11-8.88-3.11-21.63a91.67,91.67,0,0,1,1.22-15.12A56.7,56.7,0,0,1,104,190.41q3.84-9.25,9.07-9.26a5.88,5.88,0,0,1,3.15.9,21.37,21.37,0,0,1,3.86,3.54c1.21,1.26,2,2.06,2.46,2.41a2,2,0,0,0,1.16.52c.84,0,1.41-1.61,1.69-4.82h.83l.26,37.5h-.83q-1-9-1.68-13.75c-.47-3.17-1-6.12-1.68-8.83q-1.77-7.37-3.89-10.91t-4.91-3.54q-4,0-6.38,7.19a40,40,0,0,0-1.54,6.9,57.29,57.29,0,0,0-.56,7.94q0,15.8,7.76,25.44l5.09,6.43a46.15,46.15,0,0,1,8.48,16.07,79.75,79.75,0,0,1,3,22.88A99.5,99.5,0,0,1,128,293.6q-1.87,11-5.64,17t-8.85,6q-4.67,0-9-4.82c-1.49-1.7-2.38-2.67-2.67-2.93a1.47,1.47,0,0,0-1-.38c-1.16,0-2,1.52-2.38,4.54Z" transform="translate(-37.57 -20.76)"/><path class="cls-2" d="M142.34,229.84v.52a2.71,2.71,0,0,0-1.24.36,2.54,2.54,0,0,0-.85.94,6.07,6.07,0,0,0-.64,2.51c-.05.79-.08,1.71-.08,2.75v16.61c0,1.25,0,2.24.11,3a7.06,7.06,0,0,0,.35,1.73,3.21,3.21,0,0,0,.89,1.35,2.74,2.74,0,0,0,1.46.53v.51H133.8v-.51a2.71,2.71,0,0,0,1.25-.38,2.56,2.56,0,0,0,.84-.93,4.93,4.93,0,0,0,.57-1.83,28.06,28.06,0,0,0,.15-3.43V236.92a28.17,28.17,0,0,0-.15-3.43,5,5,0,0,0-.57-1.83,2.44,2.44,0,0,0-.84-.94,2.79,2.79,0,0,0-1.25-.36v-.52Z" transform="translate(-37.57 -20.76)"/><path class="cls-2" d="M207.43,186.63a5.85,5.85,0,0,0-3.3,1.46,10.79,10.79,0,0,0-2.3,3.92,21.31,21.31,0,0,0-1.19,4.39,52.84,52.84,0,0,0-.54,6.1q-.25,4.91-.25,11.61v69.62q0,9.72.43,14.45a28.39,28.39,0,0,0,1.55,7.56c1.33,3.33,3.2,5.16,5.6,5.47v2.18H184.35v-2.18a5.6,5.6,0,0,0,3.37-1.56,11.1,11.1,0,0,0,2.3-3.91,29.94,29.94,0,0,0,1.53-7.7q.42-4.68.42-14.31V199.28L173.36,313.39h-.76L154.1,201v82.74q0,9.72.42,14.36a30.21,30.21,0,0,0,1.53,7.65,10.5,10.5,0,0,0,2.3,4,5.76,5.76,0,0,0,3.34,1.51v2.18H145v-2.18a5.79,5.79,0,0,0,3.35-1.51,10.5,10.5,0,0,0,2.29-4,30.33,30.33,0,0,0,1.54-7.7q.4-4.68.41-14.31V214.11c0-2.89,0-5.63-.11-8.21a64.6,64.6,0,0,0-.83-10.2,17.08,17.08,0,0,0-2.47-6.57,6.08,6.08,0,0,0-4.18-2.5v-2.17h15.68l15.65,101,16.22-101h14.85Z" transform="translate(-37.57 -20.76)"/><path class="cls-2" d="M219,229.84v.52a2.75,2.75,0,0,0-1.24.36,2.44,2.44,0,0,0-.84.94,5.06,5.06,0,0,0-.58,1.9,37.19,37.19,0,0,0-.14,3.88V250.2c0,2.07,0,3.57.14,4.5a10.12,10.12,0,0,0,.57,2.55,6,6,0,0,0,1.58,2.59,3.56,3.56,0,0,0,2.37.8,5.35,5.35,0,0,0,2.65-.71,6.11,6.11,0,0,0,2.1-2,5.51,5.51,0,0,0,.77-1.71,11.32,11.32,0,0,0,.33-2.35c0-.61.05-2.07.05-4.37v-12.6a28.17,28.17,0,0,0-.15-3.43,5,5,0,0,0-.57-1.83,2.54,2.54,0,0,0-.85-.94,2.63,2.63,0,0,0-1.23-.36v-.52h6.16v.52a2.71,2.71,0,0,0-1.24.36,2.54,2.54,0,0,0-.85.94,5.47,5.47,0,0,0-.57,1.84,28.21,28.21,0,0,0-.15,3.42v14.22a27.28,27.28,0,0,1-.29,4.66,7.13,7.13,0,0,1-1.14,2.74,6.36,6.36,0,0,1-5.57,2.84,6.22,6.22,0,0,1-5.57-2.68,9.32,9.32,0,0,1-1.39-4.51c-.05-.66-.08-1.86-.08-3.59V236.92a31,31,0,0,0-.14-3.43,4.81,4.81,0,0,0-.58-1.83,2.5,2.5,0,0,0-.83-.94,2.72,2.72,0,0,0-1.25-.36v-.52Z" transform="translate(-37.57 -20.76)"/><path class="cls-2" d="M232.62,313.39v-2.18a5.62,5.62,0,0,0,3.38-1.56,10.94,10.94,0,0,0,2.26-3.91,28.89,28.89,0,0,0,1.55-7.65q.39-4.63.4-14.36V214.11q0-9.72-.4-14.35a28.72,28.72,0,0,0-1.55-7.65,10.17,10.17,0,0,0-2.28-4,5.94,5.94,0,0,0-3.36-1.51v-2.17h23.74a38,38,0,0,1,4.73.18,10.61,10.61,0,0,1,6.83,5.11,30.44,30.44,0,0,1,3.63,9.91,67.4,67.4,0,0,1,1.28,13.79q0,12.38-2.92,20.31a21.25,21.25,0,0,1-2.39,4.87,27.58,27.58,0,0,1-3.86,4.29,18.93,18.93,0,0,1,5.38,3.31,16.94,16.94,0,0,1,3.47,5,48.45,48.45,0,0,1,3.59,12.23,91.21,91.21,0,0,1,1.29,15.82A86.72,86.72,0,0,1,276.07,295a39.36,39.36,0,0,1-3.67,11.47,12.59,12.59,0,0,1-5.08,5.39,18.56,18.56,0,0,1-8.29,1.51Zm15.5-126v56.11h2.93a13,13,0,0,0,4.26-.76,10.27,10.27,0,0,0,3.09-1.79,10.4,10.4,0,0,0,2.15-2.83,33.22,33.22,0,0,0,2.84-9.21,71.92,71.92,0,0,0,1-12.43,86.31,86.31,0,0,0-1-13.64,38.5,38.5,0,0,0-2.73-10.06,9.46,9.46,0,0,0-3.38-4.25,11.42,11.42,0,0,0-5.76-1.14Zm0,59v38.91q0,7.1.38,11.43a39.25,39.25,0,0,0,1.25,7.37q1.84,6.33,6.32,6.33,5.82,0,9.2-8.31t3.37-22.67a105.08,105.08,0,0,0-1-15.26,40.57,40.57,0,0,0-2.82-10.81q-3.25-7-10.19-7Z" transform="translate(-37.57 -20.76)"/><path class="cls-2" d="M282.66,245.43a24.63,24.63,0,0,1,1-7,17.3,17.3,0,0,1,2.81-5.65,10.8,10.8,0,0,1,3-2.74,6.15,6.15,0,0,1,3.21-1,6.39,6.39,0,0,1,4,1.52,13.1,13.1,0,0,1,3.36,4.3,21.87,21.87,0,0,1,2.35,10.27,24.89,24.89,0,0,1-.61,5.57,20.06,20.06,0,0,1-1.79,4.9,12.74,12.74,0,0,1-3.41,4.26,6.68,6.68,0,0,1-4.12,1.51,6.61,6.61,0,0,1-4.06-1.47,12,12,0,0,1-3.34-4.15,19.15,19.15,0,0,1-1.71-4.77A26,26,0,0,1,282.66,245.43Zm3.23.34a25.93,25.93,0,0,0,2.11,11,8.7,8.7,0,0,0,2,2.92,3.76,3.76,0,0,0,4.92,0,8.84,8.84,0,0,0,2-2.93,26.14,26.14,0,0,0,2.11-11.12,38.57,38.57,0,0,0-.58-6.87,22.28,22.28,0,0,0-1.64-5.5,7.35,7.35,0,0,0-1.9-2.69,4,4,0,0,0-4.93,0,7.51,7.51,0,0,0-1.91,2.71,21.46,21.46,0,0,0-1.63,5.48A39.43,39.43,0,0,0,285.89,245.77Z" transform="translate(-37.57 -20.76)"/><path class="cls-2" d="M38.49,335.48V322.24h8.78v2.24H41.08v3.13h5.35v2.24H41.08v5.63Z" transform="translate(-37.57 -20.76)"/><path class="cls-2" d="M49.67,335.48V322.24h9.5v2.24H52.26v2.93h6.43v2.23H52.26v3.61h7.16v2.23Z" transform="translate(-37.57 -20.76)"/><path class="cls-2" d="M61.87,322.24H66.6a8.88,8.88,0,0,1,2.43.25A4.2,4.2,0,0,1,71,323.71a5.75,5.75,0,0,1,1.23,2.15,10,10,0,0,1,.42,3.12,8.71,8.71,0,0,1-.4,2.82,5.72,5.72,0,0,1-1.37,2.34A4.37,4.37,0,0,1,69,335.2a7.43,7.43,0,0,1-2.28.28H61.87Zm2.58,2.24v8.77h1.94a6.44,6.44,0,0,0,1.56-.13,2.31,2.31,0,0,0,1-.55,2.73,2.73,0,0,0,.68-1.28,8.68,8.68,0,0,0,.26-2.42,8,8,0,0,0-.26-2.36,3,3,0,0,0-.73-1.28,2.48,2.48,0,0,0-1.2-.63,11.93,11.93,0,0,0-2.12-.12Z" transform="translate(-37.57 -20.76)"/><path class="cls-2" d="M75.07,335.48V322.24h9.5v2.24H77.65v2.93h6.44v2.23H77.65v3.61h7.16v2.23Z" transform="translate(-37.57 -20.76)"/><path class="cls-2" d="M87.28,335.48V322.24h5.44a9.33,9.33,0,0,1,3,.35,3,3,0,0,1,1.49,1.27,4,4,0,0,1,.56,2.09,3.64,3.64,0,0,1-.85,2.46,4,4,0,0,1-2.54,1.23,5.65,5.65,0,0,1,1.39,1.11,15.48,15.48,0,0,1,1.47,2.15l1.57,2.58H95.7l-1.87-2.88a19.34,19.34,0,0,0-1.36-2,1.9,1.9,0,0,0-.78-.55,4.09,4.09,0,0,0-1.3-.15h-.52v5.53Zm2.59-7.64h1.91a10.07,10.07,0,0,0,2.32-.16,1.43,1.43,0,0,0,.73-.57,1.78,1.78,0,0,0,.26-1,1.63,1.63,0,0,0-.34-1.08,1.59,1.59,0,0,0-1-.52c-.21,0-.84,0-1.89,0h-2Z" transform="translate(-37.57 -20.76)"/><path class="cls-2" d="M112,335.48H109.2l-1.12-3H103l-1,3H99.16l5-13.24h2.73Zm-4.76-5.24-1.76-4.91-1.73,4.91Z" transform="translate(-37.57 -20.76)"/><path class="cls-2" d="M121.85,330.61l2.51.82a5.88,5.88,0,0,1-1.92,3.22,5.29,5.29,0,0,1-3.4,1.06,5.42,5.42,0,0,1-4.2-1.81A7,7,0,0,1,113.2,329a7.4,7.4,0,0,1,1.65-5.14,5.57,5.57,0,0,1,4.34-1.83,4.89,4.89,0,0,1,5.13,3.88l-2.56.63a2.78,2.78,0,0,0-1-1.63,2.63,2.63,0,0,0-1.75-.59,2.88,2.88,0,0,0-2.31,1.05,5.34,5.34,0,0,0-.89,3.43,5.74,5.74,0,0,0,.88,3.58,2.79,2.79,0,0,0,2.27,1.06,2.49,2.49,0,0,0,1.77-.68A4,4,0,0,0,121.85,330.61Z" transform="translate(-37.57 -20.76)"/><path class="cls-2" d="M126.77,335.48V322.24h2.58v13.24Z" transform="translate(-37.57 -20.76)"/><path class="cls-2" d="M131.56,328.94a8.71,8.71,0,0,1,.59-3.4,6,6,0,0,1,1.19-1.81,4.91,4.91,0,0,1,1.65-1.2,6.83,6.83,0,0,1,2.76-.52,5.91,5.91,0,0,1,4.54,1.82,8.31,8.31,0,0,1,0,10.06,6.55,6.55,0,0,1-9.05,0A6.94,6.94,0,0,1,131.56,328.94Zm2.67-.09a5.07,5.07,0,0,0,1,3.41,3.24,3.24,0,0,0,2.55,1.16,3.19,3.19,0,0,0,2.54-1.15,5.19,5.19,0,0,0,1-3.46,5.08,5.08,0,0,0-1-3.39,3.51,3.51,0,0,0-5.15,0A5.15,5.15,0,0,0,134.23,328.85Z" transform="translate(-37.57 -20.76)"/><path class="cls-2" d="M146.3,335.48V322.24h2.51l5.25,8.84v-8.84h2.4v13.24h-2.6l-5.16-8.64v8.64Z" transform="translate(-37.57 -20.76)"/><path class="cls-2" d="M173.19,335.48h-2.28v-1.41a3.64,3.64,0,0,1-1.34,1.23,3.41,3.41,0,0,1-1.56.4,3.52,3.52,0,0,1-2.74-1.33,5.55,5.55,0,0,1-1.14-3.72,5.46,5.46,0,0,1,1.11-3.71,3.56,3.56,0,0,1,2.81-1.27,3.42,3.42,0,0,1,2.69,1.34v-4.77h2.45Zm-6.55-5a4.57,4.57,0,0,0,.41,2.22,1.85,1.85,0,0,0,1.66,1,1.78,1.78,0,0,0,1.44-.74,3.51,3.51,0,0,0,.6-2.23,3.82,3.82,0,0,0-.58-2.38,1.79,1.79,0,0,0-1.48-.73,1.81,1.81,0,0,0-1.46.72A3.34,3.34,0,0,0,166.64,330.48Z" transform="translate(-37.57 -20.76)"/><path class="cls-2" d="M181.26,332.43l2.44.42a4.08,4.08,0,0,1-1.49,2.12,4.2,4.2,0,0,1-2.54.73,4.11,4.11,0,0,1-3.59-1.64,5.61,5.61,0,0,1-.91-3.3,5.44,5.44,0,0,1,1.2-3.74,3.91,3.91,0,0,1,3-1.35,4.07,4.07,0,0,1,3.27,1.41,6.45,6.45,0,0,1,1.15,4.34h-6.16a2.62,2.62,0,0,0,.6,1.75,1.83,1.83,0,0,0,1.41.63,1.49,1.49,0,0,0,1-.32A2.11,2.11,0,0,0,181.26,332.43Zm.14-2.57a2.55,2.55,0,0,0-.55-1.67,1.73,1.73,0,0,0-2.61,0,2.36,2.36,0,0,0-.51,1.64Z" transform="translate(-37.57 -20.76)"/><path class="cls-2" d="M190.71,331.17l2.51-.25a3.22,3.22,0,0,0,.92,1.92,2.75,2.75,0,0,0,1.88.62,2.83,2.83,0,0,0,1.88-.55,1.65,1.65,0,0,0,.64-1.28,1.23,1.23,0,0,0-.27-.8,2.12,2.12,0,0,0-.93-.57c-.3-.11-1-.3-2.07-.58a6.82,6.82,0,0,1-2.92-1.31,3.58,3.58,0,0,1-.63-4.56,3.6,3.6,0,0,1,1.6-1.34,6.2,6.2,0,0,1,2.52-.46,5.27,5.27,0,0,1,3.63,1.09,4,4,0,0,1,1.29,2.92l-2.59.12a2.32,2.32,0,0,0-.71-1.47,2.55,2.55,0,0,0-1.64-.45,2.91,2.91,0,0,0-1.77.48,1,1,0,0,0-.41.83,1,1,0,0,0,.39.8,6.49,6.49,0,0,0,2.37.88,12.16,12.16,0,0,1,2.79,1,3.6,3.6,0,0,1,1.42,1.34,4.07,4.07,0,0,1,.51,2.11,4,4,0,0,1-.61,2.13,3.64,3.64,0,0,1-1.73,1.48,6.9,6.9,0,0,1-2.79.49,5.45,5.45,0,0,1-3.73-1.16A5.1,5.1,0,0,1,190.71,331.17Z" transform="translate(-37.57 -20.76)"/><path class="cls-2" d="M203.49,335.48V322.24h2.58v13.24Z" transform="translate(-37.57 -20.76)"/><path class="cls-2" d="M208.83,335.48V322.24h2.52l5.24,8.84v-8.84H219v13.24H216.4l-5.17-8.64v8.64Z" transform="translate(-37.57 -20.76)"/><path class="cls-2" d="M222,322.24h4.72a8.91,8.91,0,0,1,2.44.25,4.2,4.2,0,0,1,1.93,1.22,5.75,5.75,0,0,1,1.23,2.15,10,10,0,0,1,.42,3.12,8.71,8.71,0,0,1-.4,2.82,5.83,5.83,0,0,1-1.37,2.34,4.37,4.37,0,0,1-1.82,1.06,7.43,7.43,0,0,1-2.28.28H222Zm2.59,2.24v8.77h1.92a6.48,6.48,0,0,0,1.57-.13,2.31,2.31,0,0,0,1-.55,2.73,2.73,0,0,0,.68-1.28,9.08,9.08,0,0,0,.26-2.42,8.35,8.35,0,0,0-.26-2.36,3,3,0,0,0-.73-1.28,2.48,2.48,0,0,0-1.2-.63,12,12,0,0,0-2.13-.12Z" transform="translate(-37.57 -20.76)"/><path class="cls-2" d="M235.11,335.48V322.24h2.58v13.24Z" transform="translate(-37.57 -20.76)"/><path class="cls-2" d="M248.62,330.61l2.51.82a5.76,5.76,0,0,1-1.92,3.22,5.29,5.29,0,0,1-3.4,1.06,5.42,5.42,0,0,1-4.2-1.81A7,7,0,0,1,240,329a7.4,7.4,0,0,1,1.65-5.14A5.59,5.59,0,0,1,246,322a5.24,5.24,0,0,1,3.82,1.44,5.35,5.35,0,0,1,1.31,2.44l-2.56.63a2.88,2.88,0,0,0-.95-1.63,2.65,2.65,0,0,0-1.75-.59,2.91,2.91,0,0,0-2.32,1.05,5.35,5.35,0,0,0-.88,3.43,5.75,5.75,0,0,0,.87,3.58,2.79,2.79,0,0,0,2.27,1.06,2.53,2.53,0,0,0,1.78-.68A4,4,0,0,0,248.62,330.61Z" transform="translate(-37.57 -20.76)"/><path class="cls-2" d="M265.17,335.48h-2.82l-1.11-3h-5.13l-1.05,3h-2.75l5-13.24H260Zm-4.76-5.24-1.77-4.91-1.73,4.91Z" transform="translate(-37.57 -20.76)"/><path class="cls-2" d="M268.36,335.48v-11h-3.8v-2.24h10.18v2.24H271v11Z" transform="translate(-37.57 -20.76)"/><path class="cls-2" d="M275.83,328.94a8.71,8.71,0,0,1,.59-3.4,6.24,6.24,0,0,1,1.19-1.81,5,5,0,0,1,1.65-1.2A6.83,6.83,0,0,1,282,322a5.91,5.91,0,0,1,4.54,1.82,8.31,8.31,0,0,1,0,10.06,6.55,6.55,0,0,1-9.05,0A6.94,6.94,0,0,1,275.83,328.94Zm2.67-.09a5.07,5.07,0,0,0,1,3.41,3.24,3.24,0,0,0,2.55,1.16,3.19,3.19,0,0,0,2.54-1.15,5.19,5.19,0,0,0,1-3.46,5.08,5.08,0,0,0-1-3.39,3.51,3.51,0,0,0-5.15,0A5.15,5.15,0,0,0,278.5,328.85Z" transform="translate(-37.57 -20.76)"/><path class="cls-2" d="M289.89,331.17l2.51-.25a3.22,3.22,0,0,0,.92,1.92,2.75,2.75,0,0,0,1.88.62,2.83,2.83,0,0,0,1.88-.55,1.65,1.65,0,0,0,.64-1.28,1.23,1.23,0,0,0-.27-.8,2.12,2.12,0,0,0-.93-.57c-.3-.11-1-.3-2.07-.58a6.82,6.82,0,0,1-2.92-1.31,3.58,3.58,0,0,1-.63-4.56,3.65,3.65,0,0,1,1.6-1.34A6.2,6.2,0,0,1,295,322a5.27,5.27,0,0,1,3.63,1.09,4,4,0,0,1,1.29,2.92l-2.59.12a2.32,2.32,0,0,0-.71-1.47,2.55,2.55,0,0,0-1.64-.45,2.91,2.91,0,0,0-1.77.48,1,1,0,0,0-.41.83,1,1,0,0,0,.39.8,6.57,6.57,0,0,0,2.38.88,12.22,12.22,0,0,1,2.78,1,3.6,3.6,0,0,1,1.42,1.34,4.07,4.07,0,0,1,.51,2.11,4,4,0,0,1-.61,2.13,3.64,3.64,0,0,1-1.73,1.48,6.9,6.9,0,0,1-2.79.49,5.45,5.45,0,0,1-3.73-1.16A5.1,5.1,0,0,1,289.89,331.17Z" transform="translate(-37.57 -20.76)"/><path class="cls-2" d="M38.44,357.69V344.44h3.87l2.32,9,2.3-9h3.88v13.25h-2.4V347.26l-2.54,10.43H43.38l-2.54-10.43v10.43Z" transform="translate(-37.57 -20.76)"/><path class="cls-2" d="M53.36,344.44H56v7.17a14.44,14.44,0,0,0,.1,2.22,2.13,2.13,0,0,0,.79,1.3,2.66,2.66,0,0,0,1.71.5,2.57,2.57,0,0,0,1.66-.47,1.88,1.88,0,0,0,.67-1.14,16.5,16.5,0,0,0,.11-2.25v-7.33h2.59v7a18.47,18.47,0,0,1-.21,3.37,3.76,3.76,0,0,1-.78,1.66,3.87,3.87,0,0,1-1.5,1.08,6.34,6.34,0,0,1-2.47.4,6.73,6.73,0,0,1-2.78-.44,4,4,0,0,1-1.5-1.14,3.63,3.63,0,0,1-.72-1.46,16.45,16.45,0,0,1-.26-3.36Z" transform="translate(-37.57 -20.76)"/><path class="cls-2" d="M66.33,357.69V344.44h2.51l5.25,8.85v-8.85h2.4v13.25H73.9l-5.17-8.64v8.64Z" transform="translate(-37.57 -20.76)"/><path class="cls-2" d="M79.15,357.69V344.44h2.58v13.25Z" transform="translate(-37.57 -20.76)"/><path class="cls-2" d="M92.39,352.81l2.51.83A5.8,5.8,0,0,1,93,356.86a5.35,5.35,0,0,1-3.4,1.05,5.45,5.45,0,0,1-4.2-1.8,7.07,7.07,0,0,1-1.64-4.93A7.42,7.42,0,0,1,85.39,346a5.58,5.58,0,0,1,4.35-1.83,5.2,5.2,0,0,1,3.81,1.44,5.31,5.31,0,0,1,1.32,2.44l-2.56.63a2.86,2.86,0,0,0-1-1.62,2.66,2.66,0,0,0-1.75-.6,2.89,2.89,0,0,0-2.32,1.06,5.29,5.29,0,0,0-.88,3.42,5.71,5.71,0,0,0,.87,3.58,2.8,2.8,0,0,0,2.27,1.07,2.57,2.57,0,0,0,1.78-.68A4,4,0,0,0,92.39,352.81Z" transform="translate(-37.57 -20.76)"/><path class="cls-2" d="M97,357.69V344.44h2.59v13.25Z" transform="translate(-37.57 -20.76)"/><path class="cls-2" d="M102.09,357.69V344.44h4.15a14.8,14.8,0,0,1,3.08.2,3.4,3.4,0,0,1,1.84,1.29,4.2,4.2,0,0,1,.74,2.58,4.42,4.42,0,0,1-.43,2.06,3.49,3.49,0,0,1-1.08,1.3,3.63,3.63,0,0,1-1.34.63,15,15,0,0,1-2.69.19h-1.68v5Zm2.59-11v3.76h1.41a6.48,6.48,0,0,0,2-.21,1.73,1.73,0,0,0,.81-.65,1.86,1.86,0,0,0,.29-1,1.74,1.74,0,0,0-1.45-1.78,12.09,12.09,0,0,0-1.86-.09Z" transform="translate(-37.57 -20.76)"/><path class="cls-2" d="M124.25,357.69h-2.81l-1.12-3H115.2l-1.06,3H111.4l5-13.25h2.73Zm-4.76-5.25-1.77-4.91L116,352.44Z" transform="translate(-37.57 -20.76)"/><path class="cls-2" d="M125.69,357.69V344.55h2.59v10.9h6.43v2.24Z" transform="translate(-37.57 -20.76)"/><path class="cls-2" d="M136.55,357.69V344.44h9.5v2.24h-6.91v2.94h6.43v2.23h-6.43v3.6h7.16v2.24Z" transform="translate(-37.57 -20.76)"/><path class="cls-2" d="M147.83,353.38l2.52-.26a3.22,3.22,0,0,0,.92,1.93,2.72,2.72,0,0,0,1.87.61,2.79,2.79,0,0,0,1.89-.55,1.64,1.64,0,0,0,.63-1.27,1.21,1.21,0,0,0-.27-.8,2,2,0,0,0-.93-.58c-.3-.11-1-.3-2.07-.58a6.88,6.88,0,0,1-2.92-1.31,3.48,3.48,0,0,1-1.17-2.66,3.48,3.48,0,0,1,2.15-3.23,6.19,6.19,0,0,1,2.52-.47,5.27,5.27,0,0,1,3.63,1.1,3.92,3.92,0,0,1,1.28,2.91l-2.59.12a2.22,2.22,0,0,0-.71-1.46,2.53,2.53,0,0,0-1.64-.45,2.85,2.85,0,0,0-1.76.48,1,1,0,0,0-.41.82,1,1,0,0,0,.38.8,6.6,6.6,0,0,0,2.38.89,12.23,12.23,0,0,1,2.79.95,3.76,3.76,0,0,1,1.42,1.35,4.3,4.3,0,0,1-.1,4.24,3.8,3.8,0,0,1-1.73,1.48,7.12,7.12,0,0,1-2.79.48,5.45,5.45,0,0,1-3.73-1.16A5.12,5.12,0,0,1,147.83,353.38Z" transform="translate(-37.57 -20.76)"/><path class="cls-2" d="M165.4,344.44h5.12a14.1,14.1,0,0,1,2.27.13,3.21,3.21,0,0,1,1.33.55,3.29,3.29,0,0,1,1,1.1,3.13,3.13,0,0,1,.39,1.55,3.2,3.2,0,0,1-.48,1.71,3.11,3.11,0,0,1-1.32,1.17,3.32,3.32,0,0,1,1.8,1.2,3.27,3.27,0,0,1,.63,2,4,4,0,0,1-.4,1.75,3.62,3.62,0,0,1-1.12,1.37,3.45,3.45,0,0,1-1.73.62c-.43.05-1.47.08-3.12.1H165.4Zm2.59,2.21v3.06h1.69c1,0,1.64,0,1.88,0a1.66,1.66,0,0,0,1-.47,1.4,1.4,0,0,0,.38-1,1.49,1.49,0,0,0-.32-1,1.45,1.45,0,0,0-1-.47c-.25,0-1,0-2.21,0Zm0,5.26v3.54h2.39a10.77,10.77,0,0,0,1.78-.08,1.56,1.56,0,0,0,.93-.53,1.61,1.61,0,0,0,.37-1.12,1.79,1.79,0,0,0-.28-1,1.63,1.63,0,0,0-.81-.61,8.34,8.34,0,0,0-2.29-.19Z" transform="translate(-37.57 -20.76)"/><path class="cls-2" d="M177.79,351.14a8.65,8.65,0,0,1,.59-3.39,6.29,6.29,0,0,1,1.19-1.82,5,5,0,0,1,1.65-1.19,6.83,6.83,0,0,1,2.76-.53,5.94,5.94,0,0,1,4.54,1.82,8.33,8.33,0,0,1,0,10.07,6.57,6.57,0,0,1-9.05,0A7,7,0,0,1,177.79,351.14Zm2.67-.09a5.07,5.07,0,0,0,1,3.41,3.36,3.36,0,0,0,5.09,0,6.5,6.5,0,0,0,0-6.85A3.22,3.22,0,0,0,184,346.5a3.28,3.28,0,0,0-2.58,1.13A5.15,5.15,0,0,0,180.46,351.05Z" transform="translate(-37.57 -20.76)"/><path class="cls-2" d="M192.26,357.69V344.44h2.52l5.24,8.85v-8.85h2.4v13.25h-2.59l-5.17-8.64v8.64Z" transform="translate(-37.57 -20.76)"/><path class="cls-2" d="M216.71,357.69h-2.82l-1.11-3h-5.12l-1.06,3h-2.75l5-13.25h2.74ZM212,352.44l-1.77-4.91-1.73,4.91Z" transform="translate(-37.57 -20.76)"/><path class="cls-2" d="M218.08,357.69V344.44h9.5v2.24h-6.92v2.94h6.44v2.23h-6.44v3.6h7.16v2.24Z" transform="translate(-37.57 -20.76)"/><path class="cls-2" d="M230,357.69V344.44h5.45a8.92,8.92,0,0,1,3,.36,2.91,2.91,0,0,1,1.49,1.27,3.9,3.9,0,0,1,.56,2.08,3.56,3.56,0,0,1-.85,2.46,4,4,0,0,1-2.53,1.23A6.09,6.09,0,0,1,238.5,353,13.88,13.88,0,0,1,240,355.1l1.57,2.59h-3.09l-1.87-2.89a17.21,17.21,0,0,0-1.37-1.94,2,2,0,0,0-.77-.56,4.56,4.56,0,0,0-1.31-.14h-.52v5.53Zm2.59-7.65h1.91a9.61,9.61,0,0,0,2.33-.16,1.4,1.4,0,0,0,.72-.56,1.76,1.76,0,0,0,.27-1,1.6,1.6,0,0,0-.35-1.07,1.54,1.54,0,0,0-1-.52,17.05,17.05,0,0,0-1.89-.05h-2Z" transform="translate(-37.57 -20.76)"/><path class="cls-2" d="M242.94,357.69V344.44h9.5v2.24h-6.92v2.94H252v2.23h-6.43v3.6h7.16v2.24Z" transform="translate(-37.57 -20.76)"/><path class="cls-2" d="M254.9,357.69V344.44h2.52l5.24,8.85v-8.85h2.4v13.25h-2.59l-5.17-8.64v8.64Z" transform="translate(-37.57 -20.76)"/><path class="cls-2" d="M267.14,353.38l2.52-.26a3.17,3.17,0,0,0,.92,1.93,2.72,2.72,0,0,0,1.87.61,2.78,2.78,0,0,0,1.88-.55,1.65,1.65,0,0,0,.64-1.27,1.21,1.21,0,0,0-.27-.8,2.13,2.13,0,0,0-.93-.58c-.3-.11-1-.3-2.07-.58a6.82,6.82,0,0,1-2.92-1.31,3.54,3.54,0,0,1-.62-4.55,3.42,3.42,0,0,1,1.6-1.34,6.13,6.13,0,0,1,2.52-.47,5.29,5.29,0,0,1,3.63,1.1,4,4,0,0,1,1.28,2.91l-2.59.12a2.27,2.27,0,0,0-.71-1.46,2.55,2.55,0,0,0-1.64-.45,2.91,2.91,0,0,0-1.77.48,1,1,0,0,0-.41.82,1,1,0,0,0,.39.8,6.6,6.6,0,0,0,2.38.89,12.42,12.42,0,0,1,2.79.95,3.66,3.66,0,0,1,1.41,1.35,4,4,0,0,1,.51,2.11,4,4,0,0,1-.61,2.13,3.75,3.75,0,0,1-1.73,1.48,7.07,7.07,0,0,1-2.78.48,5.47,5.47,0,0,1-3.74-1.16A5.16,5.16,0,0,1,267.14,353.38Z" transform="translate(-37.57 -20.76)"/><path class="cls-2" d="M279.73,357.69V344.44h9.5v2.24h-6.92v2.94h6.44v2.23h-6.44v3.6h7.16v2.24Z" transform="translate(-37.57 -20.76)"/><path class="cls-2" d="M291,353.38l2.52-.26a3.17,3.17,0,0,0,.92,1.93,2.72,2.72,0,0,0,1.87.61,2.78,2.78,0,0,0,1.88-.55,1.62,1.62,0,0,0,.64-1.27,1.21,1.21,0,0,0-.27-.8,2.13,2.13,0,0,0-.93-.58c-.3-.11-1-.3-2.07-.58a6.82,6.82,0,0,1-2.92-1.31A3.54,3.54,0,0,1,292,346a3.42,3.42,0,0,1,1.6-1.34,6.13,6.13,0,0,1,2.52-.47,5.29,5.29,0,0,1,3.63,1.1,3.92,3.92,0,0,1,1.28,2.91l-2.59.12a2.27,2.27,0,0,0-.71-1.46,2.53,2.53,0,0,0-1.64-.45,2.91,2.91,0,0,0-1.77.48,1,1,0,0,0-.4.82,1,1,0,0,0,.38.8,6.6,6.6,0,0,0,2.38.89,12.23,12.23,0,0,1,2.79.95,3.66,3.66,0,0,1,1.41,1.35,4,4,0,0,1,.51,2.11,4,4,0,0,1-.61,2.13,3.75,3.75,0,0,1-1.73,1.48,7,7,0,0,1-2.78.48,5.47,5.47,0,0,1-3.74-1.16A5.16,5.16,0,0,1,291,353.38Z" transform="translate(-37.57 -20.76)"/><line class="cls-3" x1="1.22" y1="295.84" x2="263.5" y2="295.84"/><line class="cls-3" x1="263.5" y1="342.57" x2="1.22" y2="342.57"/></svg>