<svg id="Layer_1" data-name="Layer 1" xmlns="http://www.w3.org/2000/svg" xmlns:xlink="http://www.w3.org/1999/xlink" viewBox="0 0 301.42 342.35"><defs><style>.cls-1,.cls-17{fill:none;}.cls-2{fill:#0854a2;}.cls-3{fill:#1d1c1b;}.cls-4{clip-path:url(#clip-path);}.cls-11,.cls-12,.cls-15,.cls-5{fill:#fff;}.cls-6{fill:#ffed00;stroke-width:1.13px;}.cls-11,.cls-12,.cls-15,.cls-17,.cls-6{stroke:#1d1d1b;stroke-miterlimit:10;}.cls-7{fill:#4890bf;}.cls-8{fill:#e3e3e2;}.cls-9{clip-path:url(#clip-path-2);}.cls-10{fill:#213d6b;}.cls-12,.cls-17{stroke-width:0.91px;}.cls-13{fill:#fec700;}.cls-14{fill:#069834;}.cls-15{stroke-width:0.94px;}.cls-16{fill:#e30613;}.cls-18{clip-path:url(#clip-path-3);}.cls-19{fill:#fd0;}</style><clipPath id="clip-path" transform="translate(-14.48 -20.76)"><path class="cls-1" d="M294.1,271a82.2,82.2,0,0,1-82.2,82.2H110.58A82.21,82.21,0,0,1,28.37,271V174.17H294.1Z"/></clipPath><clipPath id="clip-path-2" transform="translate(-14.48 -20.76)"><rect class="cls-1" x="28.37" y="30.68" width="129.54" height="136.06"/></clipPath><clipPath id="clip-path-3" transform="translate(-14.48 -20.76)"><rect class="cls-1" x="164.56" y="30.68" width="129.54" height="136.06"/></clipPath></defs><path class="cls-2" d="M18.45,20.76V271a92.23,92.23,0,0,0,92.13,92.12H211.9A92.22,92.22,0,0,0,304,271V20.76Z" transform="translate(-14.48 -20.76)"/><path class="cls-3" d="M170.12,58.07s0,0,0,0h-.07l0,0Z" transform="translate(-14.48 -20.76)"/><g class="cls-4"><rect class="cls-5" x="3.84" y="146.18" width="288.06" height="188.57"/><circle class="cls-6" cx="88.83" cy="236.1" r="59.32"/><polygon class="cls-6" points="166.19 195.06 246.75 151 300.78 151 298.67 170.62 207.56 204.79 166.19 195.06"/><path class="cls-6" d="M150.94,209.62l49-41.94-44.79-.74-21.17,30.38,2.31,1.77A67.45,67.45,0,0,1,150.94,209.62Z" transform="translate(-14.48 -20.76)"/><path class="cls-6" d="M105.57,191.48a65.3,65.3,0,0,1,8.67.59l1.2-21.53H89.88l4.85,21.84A65.71,65.71,0,0,1,105.57,191.48Z" transform="translate(-14.48 -20.76)"/><path class="cls-6" d="M75.77,198.63l-31.65-29.3-22.39,1.21v22.15l35,20.47A67,67,0,0,1,75.77,198.63Z" transform="translate(-14.48 -20.76)"/><path class="cls-6" d="M44,233.24l0-.28-22.26-8.63-3.41,29.21H39.05A68.9,68.9,0,0,1,44,233.24Z" transform="translate(-14.48 -20.76)"/><path class="cls-6" d="M40.47,274.78,15.4,275.93l15.76,29.61,17.23-10.75A68.48,68.48,0,0,1,40.47,274.78Z" transform="translate(-14.48 -20.76)"/><path class="cls-6" d="M58.61,308l-25,25.06,28.47,18.34,22.76-27.06A66.59,66.59,0,0,1,58.61,308Z" transform="translate(-14.48 -20.76)"/><path class="cls-3" d="M296.52,206.59l-.93,2.5c-10.26-.65-20.17.2-28.76,7.09,9.81-3.78,19.73-2.14,29.62-1.15,1.32,2.13,1.19,4.51,1.19,6.86,0,16.17.58,32.36-.11,48.5-.67,15.55-4.42,30.39-13.88,43.39-2.14,2.93-3.74,6.25-6.53,8.71-1.31-.2-2.73-.83-3.91-.53-6.56,1.65-9.47-2.64-10.12-7.54-.73-5.48-3.09-8.21-8.14-9.23-.15-1.54-1.55-3.14.18-4.61.3-.57.84-1.14.85-1.72.09-4.16-.63-8.49,6-8.3,1.55.05,4.48-2.9,3.78-5.19-.63-2.06-3.51-.94-5.36-.56-2.86.6-4.38.18-4.5-3.3-.08-2.53-.53-5.6-2-7.4-2-2.44-2.7-5-1.76-7.42,1.56-4.08-.08-6.38-3.21-8.38l-2-10.37c3.15-7.72,4.6-16.2,10.21-22.82.64,0,1.28-.07,1.25-1,.23-.21.45-.42.69-.62l.32.05,0-.33c.73-1.23,2.84-1.64,2.4-3.51-.25-1.06-1.41-.54-2.18-.54-7.74,0-15.5-.25-23.22.19-4.66.26-8.69-.5-12.25-3.49-8.76-7.36-18.39-6.73-28.47-3.34-4,1.33-8.16,3.79-12.19,2.6-5.82-1.72-11-.43-16.28,1.28a28.14,28.14,0,0,1-9.94,1.18c-8.2-.35-16.61-1.81-24.4,2-4.9,2.43-10.28,3.31-15.23,5.34-7.9,3.25-14.89,8.15-19.53,15.53-1.38,2.2-2.53,3.42-5.12,4-8.56,2-14.83,7-17.86,15.48-2.32,6.5-4,13.3-7,19.47-2.61,5.39-1.29,9.42,2.3,13.08,2.38,2.43,3.78,5.18,2.93,8.15-1.84,6.46,1.33,7.58,6.59,7.22a26.14,26.14,0,0,1,3.53.22l7.77-.87c.81-.09,1.92-.13,1.81-1.16-.06-.53-1.07-1.23-1.76-1.37-2.69-.54-5.23.47-7.79,1.12a3.46,3.46,0,0,1-.57-.51l0-.4-.39-.18c-.33-1.94-1.72-2.17-3.35-2.18s-3-.48-2.35-2.7c1.33-4.69-.67-7.93-4.16-11.05-2.69-2.41-2.7-5.08,1.92-5.59l6.48,2.11c.76.25,1.66.76,2.08-.32.34-.89-.3-1.54-1.09-2-2.17-1.11-4.5-.81-6.81-.74-1.94-2.55-4.73-5.9-2-8.36C77,270.77,78,266.47,80,262.55a24,24,0,0,1,12-11.12c2.21-1,4.63-1.27,5.91,1,3.2,5.55,6.79,10.93,3.33,18.08a12,12,0,0,0,1.13,12.09c2.4,3.36,1.94,6.06,0,9.25-1.58,2.56-2.51,5.53-4.1,8.09-2.5,4.06-2,6.59,3,7.72.85.2,2.12,1.13,2.18,1.8.46,6,5,11,4.38,17.31-.69,6.78,1.47,9.14,10,9.83l11.49,0c8.92,1.48,10.2,8.61,11.59,15.66-.35,1.78-1,3.14-3.21,3.05-9.66-.39-19.4,1.16-29-1.08-1.21-5.34-5.25-8.34-9.42-11.14-1.56-1.05-3.47-1.7-3.5-3.9a5.56,5.56,0,0,1,2.67-4.65,8.82,8.82,0,0,0,1.13-13.82c-.87-.8-2-1.87-3.08-1.2s-.57,2.12,0,3.19c1.71,3.52,1.29,6.73-1.47,10.29l-3.74-8.15c-1.7-3.27-2.58-7.84-6.24-8.82-3.23-.85-7.06-1.72-10.63-.29a4.59,4.59,0,0,1-2.16-3.16c-.2-1.22-.3-3-1.92-3.08s-2.65,1.13-2.86,2.84c-.41,1.64.1,2.77,1.79,3.26l5.06,1.62-.07,0c0,3.11,2,1.34,3.23,1.31,7.79-1.44,9.63.59,12.17,7l-1.88.74c-2.81,1.13-6.51-.68-8.65,1.77-2.62,3,1.62,5.73,1.28,9-.38,3.72,1.85,4.74,5.63,5.22,6.41.81,11,6.33,17.15,8.24.73.23.85,2.42,1.25,3.7l-3.36-.27c-.43-2.14-1.89-2.76-3.91-2.93-2.24-.19-4.64-.13-6.36-2-1-1.64-.76-5.18-4.31-2.71-4.43.06-8.35-.68-9.25-6,.19-1.71.26-3.37-1.49-4.42a8.35,8.35,0,0,0-1.48-8.92l1.31-.49-1.23-.56c0-1.31,0-2.62-.07-3.93,0-1,.07-2.18-1.35-2.08s-1.27,1.23-.83,2.17c.63,1.35-.23,3.56,2.21,3.88,0,.34,0,.69,0,1-4.11-.12-5.31-2.43-5.24-6.26,0-2.26-1.63-4.41-3.1-5.95-.37-.39-.8-.67-.92-1.17a5.17,5.17,0,0,1,.15-1.83c.74-4.31,5.22-7.12,5.22-11.73,0-2.42-.21-4.3-2.69-6-4.36-2.89-5.34-9.42-2.8-14.1a47.11,47.11,0,0,0,4.66-12.17c2.52-11,7.24-21,19-24.78,3.84-1.25,6-3.6,8.72-6.16,6.36-6.05,11.77-13.95,20.85-15.89a161.43,161.43,0,0,0,22.59-7c1.07.27,2.13.51,2.88-.64l1-.47c7.53,1.22,15.24,4.27,22.6.38,4.42-2.33,8.62-3.57,13.47-2.77l2.15.76a2.79,2.79,0,0,0,4.11.05l2-.31a20.4,20.4,0,0,0,6.8-2.45c2.25-1.25,5.07-.73,7.49-.59a11.4,11.4,0,0,0,2.86-.51,20.87,20.87,0,0,1,4.18-.23,25.23,25.23,0,0,1,14.37,5.13c2,1.51,4,3.3,6.35,4.24a5.86,5.86,0,0,0,3.42.42,33.27,33.27,0,0,1,4.69-.18q5.79-.18,11.59-.32c1.89,0,3.76.6,5.7.5a12.16,12.16,0,0,0,4.24-1,11.92,11.92,0,0,0,3.61-2.42,13.45,13.45,0,0,1,4.24-2.58c.7-.3,1.52-.38,2.26-.61s1.69-.57,2.53-.89c1.67-.63,3.32-1.32,5-1.84C284.37,206.54,290.39,205.6,296.52,206.59Zm-22.86,75c4.83,5.46,8.81,10.61,10.58,17.09.74,2.69,2.08,2.61,4,1a6.5,6.5,0,0,0,2.16-6.84C288.88,286.81,280.79,281.3,273.66,281.6Zm3.4,29.58c1.53-4.75,2.3-8.13-.76-11.24-.85-.87-1.84-1.61-3.07-.69s-.48,1.8-.1,2.71C274.22,304.54,275.33,307.12,277.06,311.18Z" transform="translate(-14.48 -20.76)"/><path class="cls-3" d="M236.37,350c-.68,4.44-4.77,3.4-7.19,3.73A155.12,155.12,0,0,1,193,354.94c-2.27-6.33-4.47-12.64-1.18-19.35.55-1.12-.53-2-1.32-3-5.45-6.66-12.26-8.93-20.66-7.15-5.09,1.07-8.87-1.44-8.17-5.2.49-2.61,1.4-5.13,2.12-7.69,1.19-.34,2.55,1.88,3.39,0,.24-.53.05-3.5-2.52-2-.53.14-1.2.14-1.07,1v-.07l-4.44.09c-.36-.56-.78-.68-1.3-.18-4.53-2.19-4.15-6.32-3.39-10,1.22-5.91,2.51-11.88,5.68-17.18,1.32-.22,2.69-.33,3.49-1.83-1.74-.15-3.33-.54-4.86.27-1.57.4-1.84-.75-2.49-1.81-2.16-3.5.35-6.79.22-10.17-.35-8.88-.77-17.75-1.14-26.63-.17-4,.35-7.94,3.42-10.76,7.91-7.26,14.44-17.2,27.51-15.18a2.37,2.37,0,0,0,1.47-.3c9.43-5.69,17.38-.91,25.46,3.46,2.11,1.14,1.75,2.14.42,3.42-1.69,1.63-3.28,3.34-5.75,4a7.73,7.73,0,0,0-5.65,4.69c-1.21,3.4-3.73,4.83-6.72,6.28-4.69,2.26-8.69,5.47-9.06,11.24a31.52,31.52,0,0,1-2.89,11.05c-2,4.51-1.18,9.63.73,14.29a4,4,0,0,0,2.42,2.31c1.89.22-.05-2.56,1.74-2.82,1.85,1.54,2.67,5.13,5.47,4.52,4.21-.93,4.54,2,5.15,4.37.47,1.81.64,3.64,2,5,2.89,2.93,3,6.23,1.36,9.78a.72.72,0,0,0-.33.45l-1.09.92c-3.25,4.32-2.69,6.4,2.2,8.22-.45,8.68,7.43,13.41,9.94,20.74.67,1.94,3.69,1.19,5.65,1.15,4.4-.07,8.45-2.15,12.94-2.16,8.53,0,12.08,5.09,9,13.35-3.41-2.42-4.28,1.14-5.72,2.66C233.06,346.81,234.44,348.59,236.37,350Z" transform="translate(-14.48 -20.76)"/><path class="cls-3" d="M186.7,338c0-4-6.65-7.59-12.42-7.15-2.66.2-5.27,1.1-7.92,1.54-6,1-10.05-2.29-9.68-8.25.35-5.53-4.65-8.73-5.26-13.73-.06-.46-.77-.89-.74-1.29.43-5-.06-9.32-5.68-11.59-1.29-.52.12-2.78,1.13-3.9,4.68-5.17,5.67-10.72,2.55-17.18-2.36-4.88-.16-9.5,1.71-14.09.79-1.94,2.29-4.41.64-6.16s-4.2-.69-6.3-.32c-6.1,1.08-9,5.06-8.11,11,1,2.16,4.12,3.36,2.88,6.5a9.38,9.38,0,0,1-5-5.55l-.14-.2a3.47,3.47,0,0,1-.47-.39s.12-.18.18-.27c-1.54-9,.46-12.16,9.3-14.76a18,18,0,0,0,1.83-.74c-3.9-5.07,5.29-7,2.81-12-1.12-2.26.35-4.58,1.93-6.47a35.62,35.62,0,0,0,3.19-3.91c1.1-1.8,3.05-4.22,2.54-5.58-.86-2.29-3.86-1-6-1.13-2.52-.12-5-.32-7.56-.45-1.15-.06-3-.53-3.37,0-3.09,4.22-9.09,2.92-12.3,6.68-2,2.34-4.65,1.5-7.1,1.6-8.5.33-14.11,6.83-13,15.36.09.75.19,1.44-.32,1.73-6.17,3.49-2.29,7.51-.26,10.92,2.64,4.43,3.55,8.3-.66,12.19-1.66,1.54-1.71,3.54-.1,4.91,3.38,2.87,4,6.63,4.34,10.68.1,1.2,0,3,1.85,3.19,6.51.56,2.51,2.88.43,3.74-2.68,1.1-1.42,4.62-4,5.38-1.23.14-3.48.16-2.09,1.92,1.51,1.91.86,4.26,2.25,6a25.68,25.68,0,0,1,2.08,4c.76,2.34,2.57,2.27,4.45,2.43,2.12.17,3.34-.95,3.49-2.8.43-5,2.88-2.84,4.78-1.32a11.75,11.75,0,0,1,4.11,6.23c.91,2,.64,4,.15,7.22-.79-2.59-1.25-4.07-1.7-5.55-1.79-1.05-4-3.62-5.6-1.2s-5.15,2.95-5.54,7.73c-.49,5.89,1.45,9.32,4.85,13,3.61.93,7-1,10.6-.71,9-1.05,13.09,2.28,13.94,11.4.33,3.49,2.18,5.84,4.92,7.7,12.53,2.08,25.17.52,37.74,1,2.83.11,3.26-1.73,3.94-3.62C188.65,347.2,186.75,342.92,186.7,338Zm-59.82-32.79c.61-.93.84-.11,1.18.21Zm2.45,1.9c-1.09,0-1.17-.78-1.16-1.61.52.29,1.05.56,1.54.88C129.74,306.42,129.46,307.13,129.33,307.13Zm1.24,1.93.14-.25.07.28Z" transform="translate(-14.48 -20.76)"/><path class="cls-3" d="M273.47,326.9c.24,3.55-5.6,9.72-11.15,11.71a29,29,0,0,1-2.92.73,17.19,17.19,0,0,1-6.47-3.85c-1.12-1.11-2.1-1.73-3.28-.19-2.34,3.07-3,1-3.85-1.15s-.63-6.33-3.5-6.07c-6.61.62-12.51-3.6-19.4-1.71-4,1.1-9.75,2.2-10.06-5.82-.09-2.11-1.48-4.06.18-6.23,1-1.35,0-1.61-1.16-1.74-4.16-.46-4.91-3.15-3.9-6.56.9-3-2.41-6.86,1.94-9.16a2.92,2.92,0,0,0-.43-2.26c-2.22-2.06-2.28-4.77-2.51-7.41-.13-1.49-.32-3-2.08-2.79-3.56.43-4.45-2.08-4.92-4.5-1.12-5.81-6.28-7-10.4-8.41-3.34-1.11-3.74-2.49-3.63-5.26.21-5.4,4.51-8.94,6.11-13.73,2.71-8.11,8.88-12.92,16.41-16.14,6.78-2.89,13.71-5.35,20.05-9.26,5.44-3.35,11.77-2.43,17.75-2.3,4.21.08,5.21,1.92,2.1,5.66-2.78,3.34-7.16,6-6.72,11.3-1.67,4.55-6.66,8.3-3.68,14a8.15,8.15,0,0,0,.65-3.31c.1-2,.66-3.79,3.06-3.89,2.65-.12,2,2.08,2.37,3.6.7,2.71.78,5.69,3.18,7.69.52,1.19,1.85,2.17,1.21,3.67-2.48,5.82-.19,10.77,2.66,15.72,2.29,4,2.76,7.82-1,11.45-2.85,2.73-3.08,5.54.87,7.7.88.48,1.79,1,1.9,2.16-1.13,4.5,1,8.1,3.27,11.64,3.19,1.07,3.65,3.79,3.59,6.52-.12,5.75,3.26,7.61,8.24,7.91Zm-50.94-19.4.45,1c0-.11.12-.27.08-.33a6.75,6.75,0,0,0-.56-.64c-.15-2.24-.42-4.44-3.21-4.9-.36-.06-1.16.42-1.16.63.06,2.55,2.55,2.74,4,4A3,3,0,0,0,222.53,307.5Z" transform="translate(-14.48 -20.76)"/><path class="cls-7" d="M104.46,354.13c-.4-1.28-.52-3.47-1.25-3.7C97,348.52,92.47,343,86.06,342.19c-3.78-.48-6-1.5-5.63-5.22.34-3.26-3.9-6-1.28-9,2.14-2.45,5.84-.64,8.65-1.77l1.88-.74,1.63-.63L95.05,333c2.76-3.56,3.18-6.77,1.47-10.29-.53-1.07-1.13-2.47,0-3.19s2.21.4,3.08,1.2a8.82,8.82,0,0,1-1.13,13.82,5.56,5.56,0,0,0-2.67,4.65c0,2.2,1.94,2.85,3.5,3.9,4.17,2.8,8.21,5.8,9.42,11.14C107.29,355.8,105.87,355.39,104.46,354.13Z" transform="translate(-14.48 -20.76)"/><path class="cls-7" d="M273.47,326.9l-5.54-.3c-5-.3-8.36-2.16-8.24-7.91.06-2.73-.4-5.45-3.59-6.52-1.12-2.21-1.16-4.59-1.15-7,5.05,1,7.41,3.75,8.14,9.23.65,4.9,3.56,9.19,10.12,7.54,1.18-.3,2.6.33,3.91.53C277.51,325.29,275.53,326.13,273.47,326.9Z" transform="translate(-14.48 -20.76)"/><path class="cls-7" d="M296.45,215c-9.89-1-19.81-2.63-29.62,1.15,8.59-6.89,18.5-7.74,28.76-7.09C298.08,210.75,298.22,212.75,296.45,215Z" transform="translate(-14.48 -20.76)"/><path class="cls-7" d="M129.35,335.25c9-1.05,13.09,2.28,13.94,11.4.33,3.49,2.18,5.84,4.92,7.7-3.37,2.58-5.23,0-7.25-2.1-1.39-7.05-2.67-14.18-11.59-15.66C129.36,336.14,129.35,335.7,129.35,335.25Z" transform="translate(-14.48 -20.76)"/><path class="cls-3" d="M246.77,345.88c0-2.57-1.31-6.2,1.32-7.26s3.92,2.59,5.7,4.32A7.41,7.41,0,0,1,246.77,345.88Z" transform="translate(-14.48 -20.76)"/><path class="cls-3" d="M237.75,348.85l.6-3.53L241,349Z" transform="translate(-14.48 -20.76)"/><path class="cls-7" d="M252.83,300.53c-.11-1.18-1-1.68-1.9-2.16-4-2.16-3.72-5-.87-7.7,3.78-3.63,3.31-7.48,1-11.45-2.85-5-5.14-9.9-2.66-15.72.64-1.5-.69-2.48-1.2-3.67l1.71-1.52c3.13,2,4.77,4.3,3.21,8.38-.94,2.46-.27,5,1.76,7.42,1.51,1.8,2,4.87,2,7.4.12,3.48,1.64,3.9,4.5,3.3,1.85-.38,4.73-1.5,5.36.56.7,2.29-2.23,5.24-3.78,5.19-6.67-.19-5.95,4.14-6,8.3,0,.58-.55,1.15-.85,1.72Z" transform="translate(-14.48 -20.76)"/><path class="cls-7" d="M273.66,281.6c7.13-.3,15.22,5.21,16.71,11.25a6.5,6.5,0,0,1-2.16,6.84c-1.89,1.61-3.23,1.69-4-1C282.47,292.21,278.49,287.06,273.66,281.6Z" transform="translate(-14.48 -20.76)"/><path class="cls-7" d="M74.44,315.73l-.09,1.48-5.06-1.62c0-1.4-.2-2.71-1.79-3.26.21-1.71,1.27-2.91,2.86-2.84s1.72,1.86,1.92,3.08A4.59,4.59,0,0,0,74.44,315.73Z" transform="translate(-14.48 -20.76)"/><path class="cls-7" d="M74.28,317.19c1.26,0,3.06-1.37,3.23,1.31C76.24,318.53,74.27,320.3,74.28,317.19Z" transform="translate(-14.48 -20.76)"/><path class="cls-8" d="M204.26,203.05l1.3-.56Z" transform="translate(-14.48 -20.76)"/><path class="cls-7" d="M164.68,310.57l-1.07,1C163.48,310.71,164.15,310.71,164.68,310.57Z" transform="translate(-14.48 -20.76)"/><path class="cls-7" d="M259.57,219.2c-7.74,0-15.5-.25-23.22.19-4.66.26-8.69-.5-12.25-3.49-8.76-7.36-18.39-6.73-28.47-3.34-4,1.33-8.16,3.79-12.19,2.6-5.82-1.72-11-.43-16.28,1.28a28.14,28.14,0,0,1-9.94,1.18c-8.2-.35-16.61-1.81-24.4,2-4.9,2.43-10.28,3.31-15.23,5.34-7.9,3.25-14.89,8.15-19.53,15.53-1.38,2.2-2.53,3.42-5.12,4-8.56,2-14.83,7-17.86,15.48-2.32,6.5-4,13.3-7,19.47-2.61,5.39-1.29,9.42,2.3,13.08,2.38,2.43,3.78,5.18,2.93,8.15-1.84,6.46,1.33,7.58,6.59,7.22a26.14,26.14,0,0,1,3.53.22l7.77-.87c.81-.09,1.92-.13,1.81-1.16-.06-.53-1.07-1.23-1.76-1.37-2.69-.54-5.23.47-7.79,1.12a3.46,3.46,0,0,1-.57-.51l0-.4-.39-.18c-.33-1.94-1.72-2.17-3.35-2.18s-3-.48-2.35-2.7c1.33-4.69-.67-7.93-4.16-11.05-2.69-2.41-2.7-5.08,1.92-5.59l6.48,2.11c.76.25,1.66.76,2.08-.32.34-.89-.3-1.54-1.09-2-2.17-1.11-4.5-.81-6.81-.74-1.94-2.55-4.73-5.9-2-8.36C77,270.77,78,266.47,80,262.55a24,24,0,0,1,12-11.12c2.21-1,4.63-1.27,5.91,1,3.2,5.55,6.79,10.93,3.33,18.08a12,12,0,0,0,1.13,12.09c2.4,3.36,1.94,6.06,0,9.25-1.58,2.56-2.51,5.53-4.1,8.09-2.5,4.06-2,6.59,3,7.72.85.2,2.12,1.13,2.18,1.8.46,6,5,11,4.38,17.31-.69,6.78,1.47,9.14,10,9.83l.87-.6c-3.4-3.66-5.34-7.09-4.85-13,.39-4.78,3.88-5.16,5.54-7.73s3.81.15,5.6,1.2c.45,1.48.91,3,1.7,5.55.49-3.25.76-5.26-.15-7.22a11.75,11.75,0,0,0-4.11-6.23c-1.9-1.52-4.35-3.69-4.78,1.32-.15,1.85-1.37,3-3.49,2.8-1.88-.16-3.69-.09-4.45-2.43a25.68,25.68,0,0,0-2.08-4c-1.39-1.72-.74-4.07-2.25-6-1.39-1.76.86-1.78,2.09-1.92,2.63-.76,1.37-4.28,4-5.38,2.08-.86,6.08-3.18-.43-3.74-1.82-.15-1.75-2-1.85-3.19-.33-4.05-1-7.81-4.34-10.68-1.61-1.37-1.56-3.37.1-4.91,4.21-3.89,3.3-7.76.66-12.19-2-3.41-5.91-7.43.26-10.92.51-.29.41-1,.32-1.73-1.07-8.53,4.54-15,13-15.36,2.45-.1,5.09.74,7.1-1.6,3.21-3.76,9.21-2.46,12.3-6.68.4-.55,2.22-.08,3.37,0,2.52.13,5,.33,7.56.45,2.12.11,5.12-1.16,6,1.13.51,1.36-1.44,3.78-2.54,5.58a35.62,35.62,0,0,1-3.19,3.91c-1.58,1.89-3,4.21-1.93,6.47,2.48,5-6.71,6.91-2.81,12a18,18,0,0,1-1.83.74C134.5,254.81,132.5,258,134,267c-.06.09-.2.25-.18.27a4.51,4.51,0,0,0,.47.4l.14.19a9.38,9.38,0,0,0,5,5.55c1.24-3.14-1.9-4.34-2.88-6.5-.85-5.92,2-9.9,8.11-11,2.1-.37,4.75-1.33,6.3.32s.15,4.22-.64,6.16c-1.87,4.59-4.07,9.21-1.71,14.09,3.12,6.46,2.13,12-2.55,17.18-1,1.12-2.42,3.38-1.13,3.9,5.62,2.27,6.11,6.58,5.68,11.59,0,.4.68.83.74,1.29.61,5,5.61,8.2,5.26,13.73-.37,6,3.73,9.24,9.68,8.25,2.65-.44,5.26-1.34,7.92-1.54,5.77-.44,12.37,3.18,12.42,7.15.05,4.9,2,9.18,3.19,13.69.34,1.76,0,4.2,3.13,3.23-2.27-6.33-4.47-12.64-1.18-19.35.55-1.12-.53-2-1.32-3-5.45-6.66-12.26-8.93-20.66-7.15-5.09,1.07-8.87-1.44-8.17-5.2.49-2.61,1.4-5.13,2.12-7.69,1.19-.34,2.55,1.88,3.39,0,.24-.53.05-3.5-2.52-2l-1.05,1v-.05l-4.44.09c-.36-.56-.78-.68-1.3-.19-4.53-2.18-4.15-6.31-3.39-10,1.22-5.91,2.51-11.88,5.68-17.18,1.32-.22,2.69-.33,3.49-1.83-1.74-.15-3.33-.54-4.86.28-1.57.39-1.84-.76-2.49-1.82-2.16-3.5.35-6.79.22-10.17-.35-8.88-.77-17.75-1.14-26.63-.17-4,.35-7.94,3.42-10.76,7.91-7.26,14.44-17.2,27.51-15.18a2.37,2.37,0,0,0,1.47-.3c9.43-5.69,17.38-.91,25.46,3.46,2.11,1.14,1.75,2.14.42,3.42-1.69,1.63-3.28,3.34-5.75,4a7.73,7.73,0,0,0-5.65,4.69c-1.21,3.4-3.73,4.83-6.72,6.28-4.69,2.26-8.69,5.47-9.06,11.24a31.52,31.52,0,0,1-2.89,11.05c-2,4.51-1.18,9.63.73,14.29a4,4,0,0,0,2.42,2.31c1.89.22-.05-2.56,1.74-2.82,1.85,1.54,2.67,5.13,5.47,4.52,4.21-.93,4.54,2,5.15,4.37.47,1.81.64,3.64,2,5,2.89,2.93,3,6.23,1.36,9.78a.77.77,0,0,0-.34.45l-1.08.92c-3.25,4.32-2.69,6.4,2.2,8.22-.45,8.68,7.43,13.41,9.94,20.74.67,1.94,3.69,1.19,5.65,1.15,4.4-.07,8.45-2.15,12.94-2.16,8.53,0,12.08,5.09,9,13.35-3.41-2.42-4.28,1.14-5.72,2.66-2,2.12-.62,3.9,1.31,5.31l1.38-1.15.6-3.53L241,349c.4-3.83,4.32-1.13,5.73-3.08,0-2.57-1.31-6.2,1.32-7.26s3.92,2.59,5.7,4.32c.81-2.85,5.27,0,5.61-3.6a17.19,17.19,0,0,1-6.47-3.85c-1.12-1.11-2.1-1.73-3.28-.19-2.34,3.07-3,1-3.85-1.15s-.63-6.33-3.5-6.07c-6.61.62-12.51-3.6-19.4-1.71-4,1.1-9.75,2.2-10.06-5.82-.09-2.11-1.48-4.06.18-6.23,1-1.35,0-1.61-1.16-1.74-4.16-.46-4.91-3.15-3.9-6.56.9-3-2.41-6.86,1.94-9.16a2.92,2.92,0,0,0-.43-2.26c-2.22-2.06-2.28-4.77-2.51-7.41-.13-1.49-.32-3-2.08-2.79-3.56.43-4.45-2.08-4.92-4.5-1.12-5.81-6.28-7-10.4-8.41-3.34-1.11-3.74-2.49-3.63-5.26.21-5.4,4.51-8.94,6.11-13.73,2.71-8.11,8.88-12.92,16.41-16.14,6.78-2.89,13.71-5.35,20.05-9.26,5.44-3.35,11.77-2.43,17.75-2.3,4.21.08,5.21,1.92,2.1,5.66-2.78,3.34-7.16,6-6.72,11.3-1.67,4.55-6.66,8.3-3.68,14a8.32,8.32,0,0,0,.65-3.31c.1-2,.66-3.79,3.06-3.89,2.65-.12,2,2.08,2.37,3.6.7,2.71.78,5.69,3.19,7.69l1.71-1.52q-1-5.19-2-10.37c3.15-7.72,4.6-16.2,10.21-22.82.64,0,1.28-.07,1.25-1,.23-.21.45-.42.69-.62l.32.05,0-.33c.73-1.23,2.84-1.64,2.4-3.51C261.5,218.68,260.34,219.2,259.57,219.2Zm-17.94,22.56h0c0,.24,0,.48,0,.7C241.59,242.23,241.61,242,241.63,241.76Z" transform="translate(-14.48 -20.76)"/><path class="cls-7" d="M74.35,317.21v0h-.07Z" transform="translate(-14.48 -20.76)"/><path class="cls-7" d="M85.07,316c-3.23-.85-7.06-1.72-10.63-.29l-.09,1.45c1.26-.06,3-1.31,3.16,1.32,7.79-1.44,9.63.59,12.17,7l1.63-.63C89.61,321.57,88.73,317,85.07,316Z" transform="translate(-14.48 -20.76)"/><path class="cls-7" d="M276.3,299.94c-.85-.87-1.84-1.61-3.07-.69s-.48,1.8-.1,2.71c1.09,2.58,2.2,5.16,3.93,9.22C278.59,306.43,279.36,303.05,276.3,299.94Z" transform="translate(-14.48 -20.76)"/><path class="cls-7" d="M255.13,300.58l-2.3-.05c-1.13,4.5,1,8.1,3.27,11.64-1.12-2.21-1.16-4.59-1.15-7C254.8,303.65,253.4,302.05,255.13,300.58Z" transform="translate(-14.48 -20.76)"/><path class="cls-7" d="M129.37,336.59c0-.45,0-.89,0-1.34-3.58-.34-7,1.64-10.6.71l-.87.6Z" transform="translate(-14.48 -20.76)"/><path class="cls-7" d="M67.5,312.33c-.41,1.64.1,2.77,1.79,3.26C69.28,314.19,69.09,312.88,67.5,312.33Z" transform="translate(-14.48 -20.76)"/><path class="cls-7" d="M74.38,325.77c0-1.31,0-2.62-.07-3.93,0-1,.07-2.18-1.35-2.08s-1.27,1.23-.83,2.17c.63,1.35-.23,3.56,2.21,3.88h0c0,.33,0,.67,0,1l1.28-.48Z" transform="translate(-14.48 -20.76)"/><path class="cls-7" d="M74.33,326.85v0h0Z" transform="translate(-14.48 -20.76)"/><path class="cls-7" d="M129.33,307.13c.13,0,.41-.71.38-.73-.49-.32-1-.59-1.54-.88C128.16,306.35,128.24,307.13,129.33,307.13Z" transform="translate(-14.48 -20.76)"/><path class="cls-7" d="M128.14,305.5l0,0v-.06Z" transform="translate(-14.48 -20.76)"/><path class="cls-7" d="M128.14,305.5l0,0-.11,0S128.11,305.49,128.14,305.5Z" transform="translate(-14.48 -20.76)"/><path class="cls-7" d="M126.88,305.23l1.18.21C127.72,305.12,127.49,304.3,126.88,305.23Z" transform="translate(-14.48 -20.76)"/><polygon class="cls-7" points="116.09 288.3 116.3 288.33 116.23 288.05 116.09 288.3"/><path class="cls-7" d="M222.5,307.48v0l0,0Z" transform="translate(-14.48 -20.76)"/><path class="cls-7" d="M219.29,302.62c-.36-.06-1.16.42-1.16.63.06,2.55,2.55,2.74,4,4a1.74,1.74,0,0,0,.4.23C222.34,305.25,222.07,303.08,219.29,302.62Z" transform="translate(-14.48 -20.76)"/><path class="cls-7" d="M223.06,308.16a5,5,0,0,0-.48-.55l.4.88C223,308.38,223.1,308.22,223.06,308.16Z" transform="translate(-14.48 -20.76)"/><path class="cls-7" d="M222.53,307.5l0,0,.08.09Z" transform="translate(-14.48 -20.76)"/></g><g class="cls-9"><rect class="cls-5" x="9.71" y="6.15" width="137.05" height="147.26"/><path class="cls-10" d="M26.71,82.3c0-2.93-1.06-6.49.86-8a10,10,0,0,1,1.19-3l.31,0,.1,2.34.12,0a10.74,10.74,0,0,1,9,3.61c4.13,4.73,3.39,11.91,5.78,17.72,5.56-2.5,5.66-11.79,11.48-13.65,3.23-1,6.59.86,9.46,2.68,2.19,1.39,4.5,2.9,5.6,5.26.45,1,1.32,2.25,2.18,1.65a1.58,1.58,0,0,0,.35-.38c2.47-3.53,2.09-8.43.27-12.34s-4.85-7.08-7.65-10.36a5.15,5.15,0,0,1-1.46-2.65c-.24-2.3,2.77-3.82,4.94-3s3.49,3,4.49,5a49,49,0,0,1,3.85,11.49,20,20,0,0,0,1.52,5.47,5.41,5.41,0,0,0,4.42,3.16A4.89,4.89,0,0,0,87.91,84a9.1,9.1,0,0,0,0-5.72,9.67,9.67,0,0,1-.64-3.16c.18-3.09,3.86-4.63,6.94-4.87a7,7,0,0,0,2-.33A12.1,12.1,0,0,0,98,68.82a6.52,6.52,0,0,1,6.82.18c3.56,2.38,3.81,7.43,3.68,11.72a25.86,25.86,0,0,1,7,3.2,11.08,11.08,0,0,1,14-5.08,3.7,3.7,0,0,0,2.23.56,2.93,2.93,0,0,0,1.22-.72q7.74-6.34,14.93-13.31a23.64,23.64,0,0,1,3.28-2.81V48H22.48V99.55h4.23Z" transform="translate(-14.48 -20.76)"/><path class="cls-7" d="M99.46,167.49l-.27-1.11,1.33-.15,1.25,1.15A1.35,1.35,0,0,1,99.46,167.49Z" transform="translate(-14.48 -20.76)"/><path class="cls-7" d="M127.71,85.68c.1,0,.23,0,.29,0s.1.19.14.29l-.59,0Z" transform="translate(-14.48 -20.76)"/><path class="cls-3" d="M122.48,118.93l-.07-.13c-.08.4-.14.77-.19,1.13l.25.36A12.45,12.45,0,0,0,122.48,118.93Z" transform="translate(-14.48 -20.76)"/><path class="cls-3" d="M95.25,68.86l-.22-.3c-.09.08-.24.16-.25.25s.12.21.19.31Z" transform="translate(-14.48 -20.76)"/><path class="cls-3" d="M138.3,141.49c.24-.51-.5-1.46-.79-2.2-.1-1.34-.61-3.15-1.61-3.2-1.2-.06-.77,1.74-.9,2.78-2,4.61-6.62,8.74-4,14.34,2.09,4.41,1.5,8.17-.74,12.08,0,.4-.08.79-.11,1.19a30.49,30.49,0,0,0,9.86-.19C140.88,157.94,134.32,150.1,138.3,141.49Z" transform="translate(-14.48 -20.76)"/><path class="cls-3" d="M33.49,156.32c-.13,3.74-.29,7.48,2,10.76,3.83.27,7.74,1.7,11.38-.79-2.49-6-10.23-8.47-9.76-16.79C34.21,152,34.67,154.53,33.49,156.32Z" transform="translate(-14.48 -20.76)"/><path class="cls-3" d="M88.08,157.57c.23-1.83-1.07-4.95-2.64-4.68-2.43.41-1.91,3.44-1.57,5.45.5,3,1.09,5.87.2,8.85,2.65.12,5.41,1.27,7.81-.85C89.85,163.76,87.61,161.41,88.08,157.57Z" transform="translate(-14.48 -20.76)"/><path class="cls-3" d="M95.43,162.68c-1.28-.88-1.94-2.58-3.75-2.87-1.05,2.58,1.14,3.32,2.48,4.53.45.92.91,1.85,1.36,2.78l3.94.37-.27-1.11A9.43,9.43,0,0,0,95.43,162.68Z" transform="translate(-14.48 -20.76)"/><path class="cls-3" d="M163.48,90.49c.5-1.12,1-2.25,1.5-3.36-5-1.51-5.25-2.87-1.37-7.25l.39-7.43c-.07-2.93-.55-5.88.3-8.79-3.86.54-5.12-3.67-9.35-2a16.13,16.13,0,0,0-5.08,3.79Q142.58,72.52,134.7,79a3.07,3.07,0,0,1-1.24.73,3.73,3.73,0,0,1-2.26-.57A11.25,11.25,0,0,0,117,84.29,26.7,26.7,0,0,0,109.87,81c.12-4.35-.13-9.48-3.75-11.91A6.65,6.65,0,0,0,99.19,69,12.45,12.45,0,0,1,97.37,70a7.19,7.19,0,0,1-2.08.34c-3.13.24-6.87,1.81-7.05,4.95a9.72,9.72,0,0,0,.65,3.21,9.31,9.31,0,0,1,0,5.81,5,5,0,0,1-4.44,3.34A5.52,5.52,0,0,1,80,84.47a20.75,20.75,0,0,1-1.55-5.57,49.17,49.17,0,0,0-3.91-11.67c-1-2.11-2.36-4.31-4.56-5.11s-5.26.74-5,3.07a5.25,5.25,0,0,0,1.48,2.7c2.85,3.33,5.93,6.56,7.78,10.53s2.23,9-.28,12.54a1.42,1.42,0,0,1-.35.38c-.87.62-1.76-.71-2.21-1.68-1.12-2.39-3.47-3.93-5.7-5.34-2.91-1.84-6.33-3.76-9.62-2.72-5.9,1.88-6,11.33-11.67,13.87-2.42-5.9-1.67-13.21-5.86-18a10.93,10.93,0,0,0-9.19-3.67l-.12,0-.1-2.38-.31.06a9.8,9.8,0,0,0-1.21,3c-1.95,1.56-.87,5.18-.87,8.16q0,13.35,0,26.71,0,27.09,0,54.17c0,4,1.45,6.18,5.82,5.2-.11-3.62-1.78-7.08-1.13-10.78-1-4.42-2-8.82-2.83-13.27-.22-1.19-.71-2.92.63-3.7,1.56-.91,2.21,1,3.27,1.65,1.92,1.18,3.52,4.38,6.19,1-2.89-5.53-3.23-12.43-6.69-17.18-4.66-6.41-3.41-12.76-3.31-19.4,0-.7,0-1.4-.05-2.1-.33-1.24-.82-3,.44-3.39s1.4,1.34,1.35,2.48c.13,1,.25,2,.37,2.94l4.92,8c-1.55,1.71-3.73-1.67-4.84.81-.92,2.08.65,3.57,1.72,5,5.11,6.7,5.78,14.81,7.42,22.63,2.9,1.57,4.9,3.32,2.79,7.07-1.49,2.67-.08,5.11,1.58,7.39,2.36,3.23,5.23,6.15,6.5,10.08l.86.83a241.45,241.45,0,0,0,28.47.08c.72-3.38,1.13-6.45-.24-10.11s1.09-7.38,3-10.65c1.25-2.1,2.27-4,1.38-6.5-5.1-1.71-1.53-4.64-1-7.15-.27-3.63,2.23-4.32,5-4.71-.5-4.95,3.86-9.18,2.12-14.37-.26-.79.23-2.59.77-2.78,6.09-2.11,4.63-8.54,7.31-12.57,2.09-3.14,3.82-6.57,2.37-11.67,3.88,3.31,3,6.39,1.77,8.9-2.37,4.73-3.27,9.9-5.18,14.75-1.38,3.51-.13,5.88,3.34,7,.89.3,2.71.25,1.83,1.35-3.92,4.9,1.24,8.17,2.18,12.85-3.46-2.52-5.83-4.76-5.12-8.92A3.15,3.15,0,0,0,97,120.64c-2.09-.29-1.05,2-1.69,3-1.82,2.81-3.7,5.59-4.6,8.89.52,3.35.06,6.45-2.27,9.09-.72,8.28,3.09,14.65,8.8,20,2,1.86,4.4,3.17,4.46,6.29l1.26,1.18c8,0,16,.59,24-.27.14-1.1-.24-2.33.78-3.22.75-3.18.76-6-1.17-9.11-2.23-3.55.84-15.9,4.64-19.25,3.24-2.85,4.7-5.49,3.06-10-1.82-5,3.61-7.91,4.71-12.24.34-1.34,1.56-2.52,1.41-4.13-2.11-1.21-1.66-2.54-.18-3.91.74-1.6,1.46-1.24,2.16,0l1.94-.11c.57-1.16,2.21-1.55,2.13-3.22-.38-8.63,5-14.32,10.3-20.07-.26-2.48-2.74-4.21-2.32-6.91l-.59-1.18c-1.25-1.46-2.94-1.64-4.69-1.61a3.14,3.14,0,0,1-3.36-1.66,1.38,1.38,0,0,1,.44-1.27c1.68-.71,1.83,1.77,3.28,1.68l1.93-3.23c-.15-1.64.52-3.54,2.06-3.09s.47,2.12-.29,3.18c2.32,4.52,3.47-.88,5.29-.62.46-1.35,1.64-3,2.7-2,1.47,1.39-.95,2.44-1.52,3.72h0l-.49,0-.49,0c1.39,4.52.4,8.78-1.44,12.94-.31,2,.72,3.6,1.28,5.35-4.83.38-5.09,4-5.25,7.57a1.67,1.67,0,0,0,2.34,1.78c2.1-.65,4.39-.55,4.91,1.61.47,2-1.54,3.86-3.26,4.68-2.86,1.37-2.67-2.13-4.05-3.23-.46-.36-.59-1.15-.93-1.89-3.58,2.37-3.1,6.88-5.53,9.71-1.89,4.13-3.77,8.26-5.68,12.38-2.06,4.45-1.16,8.15.9,12.74,1.69,3.8,5.2,7.57,2.68,13.63-2.83,6.8.54,14.33,3.7,21.06,3,.08,6-.07,9,.28,5.25.62,6.68-1.85,6.67-6.68,0-5.28-1.07-10.65.73-15.86l-.15-4.75c.58-5,.25-10-2-14.59,3.1-2.69,2.2-6.07,1.62-9.39l-1.54.29c-.66-6.34-5.55-5.48-9.87-5.5,2-5.78,6.94-4.28,10.82,1,2.07-6.43.55-13,.53-19.46a10.29,10.29,0,0,0-1.38-.2c-.41,1.2-.83,2.39-1.44,4.12-1.7-3.06.48-5.15.49-7.43ZM75.36,102.08l-.23-.24Zm-4-.9c1.66,2.14.19,4.73,1,7a3.66,3.66,0,0,0,2.08-1.48,3.66,3.66,0,0,1-2.08,1.48C67.81,106.45,72.07,103.46,71.36,101.18Zm-6.92-11.5c.3.38.85.8.77,1.12.08-.32-.47-.74-.77-1.12-.09.51-.18,1-.26,1.53-2.14-3.14-5.44-4.13-9.41-4.48C60,83,62.66,83.92,64.44,89.68Zm.72,1.21a.57.57,0,0,1-.22.16,3,3,0,0,1-.76.16h0a3,3,0,0,0,.76-.16A.57.57,0,0,0,65.16,90.89Zm-4.1,7.18c4,1.68,1.67,4.62.46,6-1.69,2-4.19,1.57-5.71-1-1.2-2-.93-3.17,1.64-3.2,0,1,0,2-.05,3.08C62.51,104.25,60.36,100.09,61.06,98.07Zm-3.71,61.52c-1.38-3.61-2.77-7.21-4.58-11.92C59.36,150.59,58.43,155.06,57.35,159.59Zm8.05,1.85a.65.65,0,0,0,.3-.27A.65.65,0,0,1,65.4,161.44Zm9-24.63c.44,3-1.06,5.1-3.35,6.79.06,2,.29,4-2,5.09-3,4.16-4.68,3.59-8.81,0S57.44,140,53.74,137c-.41-.33-.21-2.19.32-2.79.83-.92,2,.05,2.59.68,2.56,2.54,5.06,2.53,7.37-.12,1.4-1.61,2.35-1.49,3.6.07,1.61,2,3.53,2.46,5.66.7.6-1.3.51-3,2.32-4A3.86,3.86,0,0,1,74.44,136.81ZM77.86,128c-.59.52-1.15.17-1.73-.28-2.18-1.67-2.82-4-3.25-6.58-.66-3.85-1.68-7.48-6.43-8.4-6.17-1.18-9.83,1.44-11.77,7.14-.71,2.08-1.28,6.2-3.08,5.39-4.34-2,1.14-3.43,1.3-5.58A10.36,10.36,0,0,1,60,110.59c7.84-2.79,11.55-2.61,14.76,6.08C76,120,77.07,123.35,78.3,127A2.09,2.09,0,0,1,77.86,128Zm-1.33-26.74-.41.36.41-.36c1-.89,2.1-1.77,1.68-3.24C78.63,99.47,77.56,100.35,76.53,101.24Zm17.9-21.11c.4,1,1.2,2.86-.73,3.34-1.32.33-1.82-1.18-2.45-2.15-1.93-3-1-5.41,1.28-7.66,2.85-2.82,3.83.88,5.66,1.61a4.2,4.2,0,0,1,2.13,1.13,4.11,4.11,0,0,0-2.14-1.12l-.48,2C94.86,76.22,92.82,75.92,94.43,80.13Zm27.76,3.05c-.27-3,3.78.43,4.2-2.45.07-.48.92.69.77,1.07-.55,1.35,3,3.14-.62,4.25-2,.62-2,2.57-.75,4.12s1,3.07.25,4.67h0l-1.6.19h0a2.79,2.79,0,0,0-.9-3.61C119.57,89.17,122.45,85.91,122.19,83.18ZM121,96.87c1.31,3.67,2.47,6.79,3.52,9.95.33,1,1.29,2.47-.36,3-1.35.42-3.1.5-3.82-1.42C119,104.71,117.57,101,121,96.87Zm-6.65-8.49c.41.6,0,1.58-.75,1.47C111,89.47,110.2,87,107.92,85,111.72,84.43,113.06,86.46,114.38,88.38Zm-3.57,17.31a1.9,1.9,0,0,1-.73.29A1.9,1.9,0,0,0,110.81,105.69Zm0-4.74h0l0-1.68c-1.27,0-.7,1.11-1,1.72-1.78.23-4.39-.08-1.87,2.91,0,.58,0,1.16,0,1.73-4-.45-3.79-3.69-3.11-6,.77-2.64,4.12-2.36,6.17-2.27,2.46.1,2.6,2.52,1.88,4.66-.3.67-.55,1.42-.85,2.08.3-.66.55-1.41.85-2.08Zm.78,3.9a3.25,3.25,0,0,1-.5.6A3.25,3.25,0,0,0,111.62,104.85Zm-2.73-27.06a1.87,1.87,0,0,0,0-.78A1.87,1.87,0,0,1,108.89,77.79Zm0-1a2,2,0,0,0-.36-.68A2,2,0,0,1,108.85,76.84Zm-1-1.44,0,.14h0l.6,3.14c-3.2,1.82-1-1.68-2-2l1.32-1.27A9.84,9.84,0,0,0,106,71.51,9.84,9.84,0,0,1,107.84,75.4ZM103,88.56c-.08,0-.2-.19-.3-.3a2.65,2.65,0,0,1,.61-.3c.08,0,.2.2.3.31A2.26,2.26,0,0,1,103,88.56Zm3.26-8.36c.78,4.17.78,4.17-2.48,6.91C103.43,84.32,103.13,81.7,106.28,80.2Zm14,60.15c-.6.51-.47,1.91-.68,2.89-1.5-2.18-3.07-4.28-6.2-3.68-2.71.52-1.27,2.46-1.28,3.9,1,2.94,3.42,2.39,5.66,2.24l2.21-1h0l-2.21,1c-.33,2.61-2.3,2.56-4.16,2.4-2-.17-2.89-1.45-2.73-3.45-2.75-2.05-2.79-7.21-1.86-7.31,3.69-.4,4.37-6,9.77-4C125,135.55,124.33,136.91,120.24,140.35Zm6-13.74c0,.15-.71.35-.84.23-1.64-1.36-2.06-3.1-1.64-6l-3.85-5.58-4-.47c-3.78.44-7.81-.19-11,2.66-.43.61-1,1.53-1.72.73s.47-1.13,1-1.56c2.93-4.14,7.32-4.15,11.72-4.13l4.08,1.51c2.22,1.11,3.85,2.58,4,5.82C125.57,122.73,126.79,124.39,126.27,126.61ZM127.91,111,124.08,97,126,97A21.3,21.3,0,0,1,127.91,111Zm1.29-24.67.17-.29c.1,0,.23,0,.29,0s.1.2.14.3ZM145,84.74c-1.86-3.14-.16-6,.67-8.91h0l.26,0,.26-.08C148.19,79.1,144.65,81.65,145,84.74Zm9.76-19.55c-.13-.22-.4-.46-.37-.65s.31-.49.49-.75c.14.26.39.51.37.74S154.92,65,154.75,65.19Zm4.33,78c-.64-2.46-.62-4.26,1.52-5.6C160.05,139.26,161.16,141.31,159.08,143.17Zm2.32-6.86.1.11-.1-.11Zm.18-.66c-.24-.66-.47-1.32-.7-2,.5,0,1.19-1,1.44,0,.14.56-.47,1.32-.74,2Zm1.24,4.91c0-.19.07-.37.11-.55C162.89,140.19,162.85,140.37,162.82,140.56Zm.05-15.32a9,9,0,0,0,.24-5A9,9,0,0,1,162.87,125.24Zm-6.33-.42a1.18,1.18,0,0,1,.72-1.21,1.18,1.18,0,0,0-.72,1.21c0,1.46-.11,2.91-.16,4.37h0c-.79.58-1.08,1.49-.15,1.87,1.39.57,1.42-.69,1.51-1.63,1.06-1.45.71-3.16.85-4.77l3.86,1.46h0c0,.14-.15.3-.13.42a7.86,7.86,0,0,0,.27.82c-2.2.87-2.73,2.84-3.19,4.86-1.23,1.56-2.75,2.06-4.32.7s-3.13-3.21-3.14-5.5C151.93,124.13,155.41,126.43,156.54,124.82Zm5.18-52.24a3.05,3.05,0,0,1-.62,0A3.05,3.05,0,0,0,161.72,72.58Zm-1-.19-.18-.11Z" transform="translate(-14.48 -20.76)"/><path class="cls-3" d="M64,141.35c-1.2,0-3-.17-2.94,1.74a2.9,2.9,0,0,0,3.12,3.13,22.44,22.44,0,0,0,4.26-1c.4-1,.81-2,1.21-3C68,140.59,65.93,141.43,64,141.35Z" transform="translate(-14.48 -20.76)"/><path class="cls-3" d="M65,140.27a1.72,1.72,0,0,0,2.13-1.46c.27-1.14-.45-1.46-1.33-1.43s-2.09-.61-2.35.82A1.72,1.72,0,0,0,65,140.27Z" transform="translate(-14.48 -20.76)"/><path class="cls-3" d="M155.08,100.75l-.8-.35c-.15.22-.3.44-.44.66.26.11.54.34.77.3S154.93,101,155.08,100.75Z" transform="translate(-14.48 -20.76)"/><path class="cls-3" d="M115.27,135.68c-.67-.14-1.4.06-1.46.86,0,.3.47.82.83.94.7.23,1.23-.13,1.52-1.06C115.91,136.2,115.62,135.76,115.27,135.68Z" transform="translate(-14.48 -20.76)"/><path class="cls-11" d="M72.92,50.34l.39-14a1.23,1.23,0,0,0-.23-.93,1.21,1.21,0,0,0-.83-.23L25.92,34.4c-2,0-.76,13.29.29,14.74,2.13,2.94,6.92,1.9,10,1.84Z" transform="translate(-14.48 -20.76)"/><path class="cls-12" d="M121.81,57.69c4.67-1,9.17-2.43,13.86-3.3,3.9-.73,7.89-1,11.85-1.47a5.89,5.89,0,0,0,3-.92,3.9,3.9,0,0,0,1.09-3l.66-13.66c-20,1.3-39.53,5.34-58.67,10.24-4,1-11.88,2.34-12.16,6.68-.1,1.59,1,3.28,1.43,4.8.75,2.55.34,5.13.87,7.67C96.22,60.33,108.89,60.36,121.81,57.69Z" transform="translate(-14.48 -20.76)"/><path class="cls-13" d="M35.39,47.17a9.69,9.69,0,0,1-2.14.54,13.3,13.3,0,0,1-2.17.22q-1.44,0-1.44-1.26c0,.07,0-.55.12-1.85q.15-2.55.15-5.67a.81.81,0,0,1,.23-.57.82.82,0,0,1,.59-.23.8.8,0,0,1,.58.23.78.78,0,0,1,.24.57c0,2.09-.05,4-.16,5.76,0,.31-.07.79-.11,1.44a14.2,14.2,0,0,0,3.56-.68.85.85,0,0,1,.26-.05.74.74,0,0,1,.6.27.79.79,0,0,1,.2.54A.78.78,0,0,1,35.39,47.17Z" transform="translate(-14.48 -20.76)"/><path class="cls-13" d="M42.66,46.38a3.93,3.93,0,0,1-1,1,2.74,2.74,0,0,1-1.52.47,3.66,3.66,0,0,1-2.22-.56q-1.53-1.2-1.53-4.14c0-.19,0-.47,0-.84s0-.66,0-.84,0-.38,0-.68,0-.52,0-.67a2.18,2.18,0,0,1,.17-.87c.15-.36.36-.54.64-.54a.87.87,0,0,1,.57.21.7.7,0,0,1,.26.56v1c0,.44,0,.77,0,1s0,.46,0,.83,0,.65,0,.83a6.21,6.21,0,0,0,.21,1.65A2.27,2.27,0,0,0,38.94,46a2.4,2.4,0,0,0,1.17.2c1,0,1.73-.87,2.09-2.64a20.3,20.3,0,0,0,.28-3.87,1.22,1.22,0,0,1,.19-.63.86.86,0,0,1,.75-.41.67.67,0,0,1,.6.3.81.81,0,0,1,.16.48A23.74,23.74,0,0,1,44,43.06,7.59,7.59,0,0,1,42.66,46.38Z" transform="translate(-14.48 -20.76)"/><path class="cls-13" d="M51.22,41.15a.81.81,0,0,1-.78-.56.62.62,0,0,0-.24-.32,1.78,1.78,0,0,0-.46,0c-.49,0-1.06.38-1.71,1.15a4.81,4.81,0,0,0-1.35,3,1.52,1.52,0,0,0,.43,1.09,1.32,1.32,0,0,0,1,.46,2.61,2.61,0,0,0,1.18-.3c.14-.08.44-.27.89-.58a1.52,1.52,0,0,1,.69-.3.76.76,0,0,1,.6.26.78.78,0,0,1,.23.55.75.75,0,0,1-.31.6,5,5,0,0,1-3.28,1.36,3,3,0,0,1-2.23-1A3.13,3.13,0,0,1,45,44.39a6.31,6.31,0,0,1,1.71-4,4,4,0,0,1,3-1.74l.46,0,.37.05a.89.89,0,0,1,.62-.25c.4,0,.65.23.74.69A5.59,5.59,0,0,1,52,40.3a.93.93,0,0,1-.17.53A.74.74,0,0,1,51.22,41.15Z" transform="translate(-14.48 -20.76)"/><path class="cls-13" d="M61,39.22a2.89,2.89,0,0,0-.12.75q0,.16,0,.51t0,.51c0,.37,0,.92-.06,1.66s-.06,1.29-.06,1.66,0,.71.07,1.28.06,1,.06,1.29a.74.74,0,0,1-.23.54.78.78,0,0,1-.57.23.92.92,0,0,1-.6-.22.72.72,0,0,1-.25-.54c0-.28,0-.71,0-1.28s0-1,0-1.29,0-.42,0-.59a17.06,17.06,0,0,0-2.28.29l-2.25.41c0,.25,0,.67-.08,1.25s-.06.93-.06,1.25a.64.64,0,0,1-.23.51.85.85,0,0,1-1.13,0,.68.68,0,0,1-.23-.53c0-.39,0-1,.1-1.73s.1-1.34.1-1.73,0-1.22,0-2.2,0-1.72,0-2.21a.7.7,0,0,1,.23-.53.85.85,0,0,1,1.14,0,.75.75,0,0,1,.23.55c0,.29,0,.74,0,1.34s0,1,0,1.34c0,.09,0,.28,0,.56s0,.45,0,.59l2.25-.42a15.77,15.77,0,0,1,2.28-.27c0-.26,0-1,.07-2.13A2.75,2.75,0,0,1,59.44,39c.22-.49.47-.73.74-.73a.83.83,0,0,1,.56.21.69.69,0,0,1,.25.56A.52.52,0,0,1,61,39.22Z" transform="translate(-14.48 -20.76)"/><path class="cls-13" d="M68.72,47.57c-.31,0-.62-.38-.93-1.1a9.23,9.23,0,0,1-.54-1.59c-.29,0-.76.09-1.41.13a12.91,12.91,0,0,0-1.42.15c-.18.43-.5,1.08-.94,1.94a.8.8,0,0,1-.72.42.88.88,0,0,1-.58-.22.69.69,0,0,1-.25-.56,9,9,0,0,1,.85-2,.74.74,0,0,1-.07-.34c0-.19.21-.34.57-.44.55-1,1.17-2,1.85-3,1-1.48,1.58-2.22,1.81-2.22.43,0,.71.26.86.77s.2,1,.37,1.89c.24,1.12.53,2.41.87,3.86,0,.11.13.37.3.77a2.24,2.24,0,0,1,.21.76.72.72,0,0,1-.25.57A.86.86,0,0,1,68.72,47.57Zm-2.19-6c-.3.52-.72,1.24-1.26,2.14a5.43,5.43,0,0,1,.82-.09c.44,0,.72-.05.83-.07Q66.79,42.77,66.53,41.55Z" transform="translate(-14.48 -20.76)"/><path class="cls-14" d="M96.28,58.27a5.67,5.67,0,0,1-1.1,1.35,4,4,0,0,1-1.76.93,4.54,4.54,0,0,1-2.76,0q-2-.88-2.45-4.12,0-.32-.09-.93c0-.42-.06-.72-.09-.93s0-.41-.08-.74-.06-.58-.09-.74a2.42,2.42,0,0,1,.08-1,1,1,0,0,1,.69-.77,1.06,1.06,0,0,1,.71.06.66.66,0,0,1,.41.55c0,.24.08.6.14,1.08s.1.86.13,1.1.06.51.09.92.06.72.09.92a5.92,5.92,0,0,0,.49,1.76,2.24,2.24,0,0,0,1.06,1.2,3.06,3.06,0,0,0,1.43-.11c1.25-.27,2-1.43,2.13-3.47A21.33,21.33,0,0,0,95.08,51a1.29,1.29,0,0,1,.14-.75,1.19,1.19,0,0,1,.84-.65.79.79,0,0,1,.76.16.77.77,0,0,1,.26.48,25.23,25.23,0,0,1,.27,4A9,9,0,0,1,96.28,58.27Z" transform="translate(-14.48 -20.76)"/><path class="cls-14" d="M109.86,54.65a6.3,6.3,0,0,1,0,1,1.06,1.06,0,0,1-.92,1.07,1.73,1.73,0,0,1-1.18-.25,44.58,44.58,0,0,1-7-4.85c.12,1.12.2,1.81.23,2.06s.13.85.23,1.53.19,1.19.23,1.53c.17,1.26-.08,2-.76,2.13a1.12,1.12,0,0,1-.86-.1.74.74,0,0,1-.36-.56c0-.17,0-.44-.06-.79a5.91,5.91,0,0,0-.06-.79c0-.25-.07-.64-.12-1.15s-.09-.89-.12-1.14-.1-.68-.19-1.22-.15-.95-.18-1.22-.12-.63-.24-1.13a9,9,0,0,1-.24-1.13,1,1,0,0,1,.27-.77,1.43,1.43,0,0,1,.79-.5c.35-.08.77.11,1.27.56a38,38,0,0,0,7.22,5.34c0-.13,0-.46-.12-1-.29-2.11-.5-3.53-.65-4.26a6,6,0,0,0-.18-.67,4,4,0,0,1-.16-.69c-.08-.6.22-1,.91-1.13s1.29.81,1.58,3q0,.08.12,1C109.62,52.76,109.79,54.12,109.86,54.65Z" transform="translate(-14.48 -20.76)"/><path class="cls-14" d="M116.24,47c-.22.05-.85.13-1.88.25,0,.8.15,1.86.32,3.16l.38,2.9,1.91-.46a.93.93,0,0,1,.74.09.72.72,0,0,1,.36.55.91.91,0,0,1-.2.68,1.13,1.13,0,0,1-.69.42l-1.2.3-1.21.3a11.16,11.16,0,0,0-1.41.44A14.72,14.72,0,0,1,112,56a1,1,0,0,1-.76-.09.72.72,0,0,1-.36-.55.92.92,0,0,1,.21-.69,1.32,1.32,0,0,1,.72-.43,11.06,11.06,0,0,0,1.33-.4c-.07-.51-.21-1.48-.4-2.91-.15-1.17-.26-2.29-.3-3.37l-1.53.39a1,1,0,0,1-.74-.09.72.72,0,0,1-.37-.56.88.88,0,0,1,.19-.68,1.28,1.28,0,0,1,.59-.39c.39-.13,1.09-.31,2.08-.54a29.53,29.53,0,0,1,3.49-.52q.86-.09,1,.69a.9.9,0,0,1-.24.73A1.11,1.11,0,0,1,116.24,47Z" transform="translate(-14.48 -20.76)"/><path class="cls-14" d="M120.55,53.88a1,1,0,0,1-.73-.1.76.76,0,0,1-.37-.55c0-.43-.12-1.08-.19-1.94s-.13-1.52-.19-1.95-.17-1.19-.32-2.14-.25-1.66-.31-2.13a1.08,1.08,0,0,1,.27-.79,1.35,1.35,0,0,1,.76-.54,4.76,4.76,0,0,1,1.22.13c.77.15,1.23.23,1.37.24a8.64,8.64,0,0,1,3.78,1.07,4,4,0,0,1,2.19,3,4.34,4.34,0,0,1-.32,2.25,5.27,5.27,0,0,1-1.42,2,7.28,7.28,0,0,1-3.2,1.46,6.78,6.78,0,0,1-1.2.13A4,4,0,0,1,120.55,53.88Zm3.08-7.53a23.28,23.28,0,0,0-3.1-.56l.85,6.37a2,2,0,0,0,.67.1,4.06,4.06,0,0,0,.8-.1,5,5,0,0,0,2.13-.9,3.19,3.19,0,0,0,.87-1.22,2.77,2.77,0,0,0,.19-1.4C125.9,47.58,125.1,46.81,123.63,46.35Z" transform="translate(-14.48 -20.76)"/><path class="cls-14" d="M137.81,50c-.37.07-.8-.24-1.28-.94a8.84,8.84,0,0,1-.87-1.6c-.35.13-.91.3-1.69.54a15.39,15.39,0,0,0-1.68.56c-.16.52-.44,1.31-.85,2.39a1.14,1.14,0,0,1-.8.66,1.08,1.08,0,0,1-.73-.08.72.72,0,0,1-.39-.55,10.83,10.83,0,0,1,.73-2.46.63.63,0,0,1-.13-.35c0-.21.2-.43.62-.64.52-1.21,1.12-2.48,1.79-3.8.95-1.9,1.57-2.88,1.84-2.94a.94.94,0,0,1,1.15.62l.72,2c.45,1.17,1,2.5,1.62,4a8.79,8.79,0,0,0,.47.77,2.15,2.15,0,0,1,.37.77.86.86,0,0,1-.22.69A1.15,1.15,0,0,1,137.81,50Zm-3.51-6-1.2,2.7a9.4,9.4,0,0,1,1-.33l1-.3C134.87,45.57,134.62,44.88,134.3,44Z" transform="translate(-14.48 -20.76)"/><path class="cls-14" d="M141.53,49a1,1,0,0,1-.73-.1.72.72,0,0,1-.36-.55c-.06-.43-.13-1.08-.2-2s-.13-1.51-.19-1.94-.17-1.19-.32-2.14-.25-1.66-.31-2.13a1.05,1.05,0,0,1,.28-.79,1.26,1.26,0,0,1,.75-.54,4.76,4.76,0,0,1,1.22.13,13,13,0,0,0,1.37.23,8.65,8.65,0,0,1,3.78,1.08,4,4,0,0,1,2.19,3,4.37,4.37,0,0,1-.32,2.26,5.35,5.35,0,0,1-1.42,2,7.17,7.17,0,0,1-3.2,1.45,5.82,5.82,0,0,1-1.2.14A4,4,0,0,1,141.53,49Zm3.08-7.53a23,23,0,0,0-3.1-.56l.85,6.37a2,2,0,0,0,.67.1,4.06,4.06,0,0,0,.8-.1,5.1,5.1,0,0,0,2.14-.9,3.27,3.27,0,0,0,.86-1.22,2.77,2.77,0,0,0,.19-1.4C146.88,42.73,146.08,42,144.61,41.51Z" transform="translate(-14.48 -20.76)"/><path class="cls-15" d="M81.55,54.17c2.9-1.05,5.76-2.25,8.72-3.14,8.53-2.57,17.86-2.64,25.89-6.45l-.43-15.33c-9.58-.38-18.87,3-27.76,6.52C71.82,43.85,54.34,47.35,36.9,51.31c-2.93.67-5.61,2-8.58,2.2a41.36,41.36,0,0,0,.16,13.73c1.11,6.2,6.43,1.66,9.88.12a107.45,107.45,0,0,1,14.28-5C62.27,59.58,72.14,57.6,81.55,54.17Z" transform="translate(-14.48 -20.76)"/><path class="cls-16" d="M35.47,64a.67.67,0,0,1-.58-.08.59.59,0,0,1-.26-.5c0-.39,0-1,0-1.78s0-1.4,0-1.79-.06-1.09-.12-2-.11-1.52-.13-2a1.25,1.25,0,0,1,.27-.74,1.22,1.22,0,0,1,.64-.5,2.8,2.8,0,0,1,1,.09c.61.12,1,.19,1.08.19a5.72,5.72,0,0,1,3,.92,3.3,3.3,0,0,1,1.57,2.69,4.74,4.74,0,0,1-.39,2.08,5.6,5.6,0,0,1-1.26,1.88A6.1,6.1,0,0,1,37.5,64a4.49,4.49,0,0,1-1,.15A2.7,2.7,0,0,1,35.47,64Zm2.92-7A16.45,16.45,0,0,0,36,56.6l.29,5.84a1.42,1.42,0,0,0,.52.08,3.4,3.4,0,0,0,.65-.11,4.28,4.28,0,0,0,1.76-.86,3.37,3.37,0,0,0,.77-1.15,3,3,0,0,0,.24-1.29A2.28,2.28,0,0,0,38.39,57.05Z" transform="translate(-14.48 -20.76)"/><path class="cls-16" d="M48.32,52.65l-.24,0a6.45,6.45,0,0,0-1.82.25,6.87,6.87,0,0,0-.92.33,11,11,0,0,0-1,.51c0,.53,0,1.31.06,2.35l2.24-.86q1.08-.42,1.38-.51a.74.74,0,0,1,.59.06.59.59,0,0,1,.27.52,1,1,0,0,1-.69,1l-1.36.51c-.55.22-1.36.53-2.45.93,0,.51,0,.91,0,1.22a2.9,2.9,0,0,0,.2,1.28s.28,0,.72-.13l1.08-.32c.47-.15.83-.26,1.07-.32l.34-.14.33-.13a.76.76,0,0,1,.58,0,.59.59,0,0,1,.3.53,1,1,0,0,1-.64,1,16.25,16.25,0,0,1-2.37.79,3.65,3.65,0,0,1-2.47.18c-.44-.26-.69-1-.75-2.3,0-.53,0-1.33,0-2.41s0-1.88,0-2.4a5.4,5.4,0,0,0-.09-.59,5.51,5.51,0,0,1-.09-.6,1,1,0,0,1,.76-1.12.75.75,0,0,1,.47,0c.44-.24.86-.44,1.26-.61a9.23,9.23,0,0,1,1.13-.41A6.38,6.38,0,0,1,48.51,51a.58.58,0,0,1,.57.6,1,1,0,0,1-.18.6A1,1,0,0,1,48.32,52.65Z" transform="translate(-14.48 -20.76)"/><path class="cls-16" d="M52.48,54.41c-.14.69-.33,1.72-.58,3.09,0,.47-.1.93-.14,1.39A1.27,1.27,0,0,1,50.93,60a.67.67,0,0,1-.64-.1.67.67,0,0,1-.22-.51,9.56,9.56,0,0,1,.28-2.44c.32-1.49.5-2.31.52-2.47.08-.63.17-1.27.25-1.91a5.91,5.91,0,0,1,.48-1.83,1.23,1.23,0,0,1,.74-.63.62.62,0,0,1,.79.33,8.74,8.74,0,0,1,.6,2,26.46,26.46,0,0,0,.92,3.1c.38-1.29.72-2.69,1-4.19l.25-1.45a1.45,1.45,0,0,1,.92-1.12c.41-.12.74.12,1,.72a9.38,9.38,0,0,1,.34,1.4,27.13,27.13,0,0,0,1,4.06,16.7,16.7,0,0,1,.61,1.84,1,1,0,0,1-.24.66,1.07,1.07,0,0,1-.56.37c-.41.12-.74-.1-1-.65l-.4-1.34c-.21-.65-.46-1.61-.74-2.88-.15.58-.39,1.49-.74,2.73l-.29,1.18A7.4,7.4,0,0,1,55.5,58a1.3,1.3,0,0,1-.82.8.71.71,0,0,1-.86-.42l-.38-1C53.1,56.44,52.78,55.46,52.48,54.41Z" transform="translate(-14.48 -20.76)"/><path class="cls-16" d="M64.59,56.06a3.76,3.76,0,0,1-2.94-.18,2.68,2.68,0,0,1-1.42-2.41,7.25,7.25,0,0,1,1.05-4,5.64,5.64,0,0,1,3.36-2.84,3.78,3.78,0,0,1,3,.09,3,3,0,0,1,1.14,2.56,7.5,7.5,0,0,1-.94,3.95A5.37,5.37,0,0,1,64.59,56.06Zm.13-7.84a3.62,3.62,0,0,0-2.13,1.9A5.3,5.3,0,0,0,61.87,53a1.51,1.51,0,0,0,.82,1.39,2.43,2.43,0,0,0,1.82.07,3.35,3.35,0,0,0,2-1.87,5.48,5.48,0,0,0,.64-2.86c0-.83-.25-1.35-.63-1.57A2.55,2.55,0,0,0,64.72,48.22Z" transform="translate(-14.48 -20.76)"/><path class="cls-16" d="M75.48,46.23a.62.62,0,0,1-.79-.34c-.09-.16-.17-.24-.25-.25a1.42,1.42,0,0,0-.46.08c-.48.14-1,.69-1.61,1.64a6.22,6.22,0,0,0-1.18,3.4,1.25,1.25,0,0,0,.48,1,1.1,1.1,0,0,0,1,.18,3.14,3.14,0,0,0,1.14-.64c.13-.11.41-.39.84-.82a1.9,1.9,0,0,1,.66-.5.63.63,0,0,1,.6.09.61.61,0,0,1,.25.49,1,1,0,0,1-.26.69,6.55,6.55,0,0,1-3.15,2.29,2.41,2.41,0,0,1-2.23-.35,2.47,2.47,0,0,1-1-2,8,8,0,0,1,1.48-4.52,5.38,5.38,0,0,1,2.83-2.57l.46-.12.36,0a1.14,1.14,0,0,1,.6-.42c.39-.11.64.05.76.48a5.63,5.63,0,0,1,.15,1.13,1,1,0,0,1-.14.58A.92.92,0,0,1,75.48,46.23Z" transform="translate(-14.48 -20.76)"/><path class="cls-16" d="M83.2,50.48a.69.69,0,0,1-.58-.08,7.51,7.51,0,0,0-3.94-1.24q.15,1.7.15,1.89a1,1,0,0,1-.2.63,1,1,0,0,1-.56.4.7.7,0,0,1-.59-.07.61.61,0,0,1-.25-.51q0-.44-.06-1.32c0-.59,0-1,0-1.33l-.23-4.77a1.45,1.45,0,0,1,.19-.76,1.14,1.14,0,0,1,.79-.58l1.44-.3a3.71,3.71,0,0,1,1.38,0c1.68.38,2.55,1.19,2.61,2.45a2.49,2.49,0,0,1-.44,1.51,5.45,5.45,0,0,1-1.5,1.43A6.34,6.34,0,0,1,83.75,49a.6.6,0,0,1,.22.46,1.09,1.09,0,0,1-.77,1Zm-4-6.37-.68.14.16,3.13.25-.06a5.9,5.9,0,0,0,2.07-1,3,3,0,0,0,.51-.56,1,1,0,0,0,.23-.46c0-.44-.32-.78-.88-1A2.72,2.72,0,0,0,79.15,44.11Z" transform="translate(-14.48 -20.76)"/><path class="cls-16" d="M91.44,48.25q-.45.11-1-.84A7.73,7.73,0,0,1,89.87,46c-.28.13-.74.3-1.38.53s-1.06.4-1.38.55c-.16.48-.43,1.22-.82,2.21a1.06,1.06,0,0,1-.68.62A.72.72,0,0,1,85,49.8a.54.54,0,0,1-.28-.49A11.34,11.34,0,0,1,85.48,47a.61.61,0,0,1-.08-.32c0-.19.18-.39.53-.6.5-1.12,1-2.3,1.67-3.53q1.32-2.64,1.65-2.73c.43-.12.72.06.89.54l.45,1.79c.29,1.07.64,2.28,1,3.65,0,.1.15.33.34.69a2,2,0,0,1,.24.71.94.94,0,0,1-.22.64A1,1,0,0,1,91.44,48.25ZM89,42.8c-.27.62-.65,1.45-1.13,2.51a6.85,6.85,0,0,1,.8-.33c.43-.14.7-.24.81-.29C89.36,44.2,89.2,43.58,89,42.8Z" transform="translate(-14.48 -20.76)"/><path class="cls-16" d="M98.89,39.58a.63.63,0,0,1-.79-.34c-.09-.16-.17-.24-.25-.26a1.57,1.57,0,0,0-.46.09c-.48.14-1,.68-1.61,1.63a6.27,6.27,0,0,0-1.18,3.41,1.28,1.28,0,0,0,.48,1,1.1,1.1,0,0,0,1,.18,3.14,3.14,0,0,0,1.14-.64c.13-.11.41-.39.84-.83a2,2,0,0,1,.66-.5.66.66,0,0,1,.6.1.61.61,0,0,1,.25.49,1,1,0,0,1-.27.69,6.52,6.52,0,0,1-3.14,2.28A2.4,2.4,0,0,1,94,46.52a2.48,2.48,0,0,1-1-2,8,8,0,0,1,1.48-4.51,5.41,5.41,0,0,1,2.83-2.58l.46-.11a3.06,3.06,0,0,1,.36,0,1.11,1.11,0,0,1,.6-.43c.39-.11.64.06.76.49a5.63,5.63,0,0,1,.15,1.13,1,1,0,0,1-.14.58A1,1,0,0,1,98.89,39.58Z" transform="translate(-14.48 -20.76)"/><path class="cls-16" d="M105.16,37.1c-.19,0-.69.14-1.52.26q0,1.11.06,2.91l.13,2.65,1.55-.46a.7.7,0,0,1,.59.07.63.63,0,0,1,.25.51,1,1,0,0,1-.2.63,1.07,1.07,0,0,1-.57.39l-1,.3-1,.29a11.8,11.8,0,0,0-1.16.44,11.17,11.17,0,0,1-1.16.43.63.63,0,0,1-.59-.07.59.59,0,0,1-.26-.49,1,1,0,0,1,.21-.64,1.18,1.18,0,0,1,.6-.41,10.73,10.73,0,0,0,1.1-.4c0-.46-.08-1.35-.15-2.66,0-1.07-.06-2.1,0-3.1l-1.24.39a.66.66,0,0,1-.59-.06.61.61,0,0,1-.26-.51,1,1,0,0,1,.19-.63,1.13,1.13,0,0,1,.5-.37c.32-.13.89-.31,1.7-.54a24.79,24.79,0,0,1,2.82-.55c.46-.06.7.15.73.62a.91.91,0,0,1-.24.67A1,1,0,0,1,105.16,37.1Z" transform="translate(-14.48 -20.76)"/><path class="cls-16" d="M113.75,41.91c-.3.07-.63-.21-1-.84a8.48,8.48,0,0,1-.6-1.46c-.28.13-.74.3-1.38.53a14.33,14.33,0,0,0-1.39.55c-.15.48-.42,1.22-.82,2.21a1.08,1.08,0,0,1-.68.63.73.73,0,0,1-.58-.07.55.55,0,0,1-.28-.49,11.77,11.77,0,0,1,.74-2.28.62.62,0,0,1-.09-.32q0-.28.54-.6c.49-1.12,1.05-2.3,1.66-3.52.89-1.77,1.44-2.68,1.66-2.74.42-.12.72.06.88.54s.25,1,.46,1.79c.29,1.07.64,2.29,1,3.65a5.53,5.53,0,0,0,.33.69,1.88,1.88,0,0,1,.25.71,1,1,0,0,1-.22.64A1,1,0,0,1,113.75,41.91Zm-2.44-5.45L110.18,39a5.65,5.65,0,0,1,.8-.32c.43-.15.69-.25.8-.3C111.67,37.87,111.51,37.24,111.31,36.46Z" transform="translate(-14.48 -20.76)"/><path class="cls-17" d="M152.1,35.28l-.64,33.64" transform="translate(-14.48 -20.76)"/><path class="cls-17" d="M83.71,63.93a202.63,202.63,0,0,1-.51,26.54" transform="translate(-14.48 -20.76)"/><path class="cls-17" d="M27.61,65,27.37,79.7" transform="translate(-14.48 -20.76)"/><path class="cls-17" d="M116.08,42.64l-.56,44.68" transform="translate(-14.48 -20.76)"/></g><g class="cls-18"><rect class="cls-5" x="149.23" y="5.43" width="133.37" height="145.57"/><path class="cls-7" d="M264.53,150.18c-5.08-3.43-10.28-1.8-15.34-.11-6.33,2.11-12.44,2.82-19.15,1-3.94-1.06-8.49.17-12.77.33-2.07.07-4.31.32-5.19-2.24a5.13,5.13,0,0,1,2.49-6.12c6.36-2.89,12.14-7.12,19.13-8.61,6.52,2.36,11.31.83,12.42-4.06.55-2.46.81-5,1.2-7.48.34-.74.69-1.48,1-2.21a75.63,75.63,0,0,0,15.56.13l16.68,0L287,121v2l-.64,5.26a8.68,8.68,0,0,0-.11,6.49c1.11,3,.19,5.79-2.05,6.63C277.45,143.94,272.54,150.52,264.53,150.18Z" transform="translate(-14.48 -20.76)"/><path class="cls-7" d="M185.41,121.37l2.49-.45,9.64.59c-.07.49-.14,1-.2,1.49-.45,3.62-2.89,6.33-6,6.72-3.29.41-3.94-3.48-5.21-5.92A12,12,0,0,1,185.41,121.37Z" transform="translate(-14.48 -20.76)"/><path class="cls-7" d="M231,86.05c-3.23-1.52-6.4-3.18-9.7-4.55-5.41-2.25-6.2-7.07-5.84-11.69.29-3.78,2.14-7.49,3.62-11.1,1-2.39,3.55-2,5.49-1.79,7,.77,12-1.23,13.39-8.75l.4,0,.07-.39a7.67,7.67,0,0,0,.74-.53c6.5-.57,9.67-7.1,16.08-8.44,8.25-1.72,10.38-.47,8.84,7.47-1.64,3.31-4.3,6.11-5,9.89-.81,0-1.12.47-1.07,1.24.48,2.65-1.49,4.39-2.48,6.5l-1,1.36.05-.08c-1.43.12-3.19,0-1.92,2.31a3,3,0,0,0-1.18,3l0,0-1.08,1.08h0a1,1,0,0,0-1,0c-2.26-.76-2.34.55-2.09,2.17a5.08,5.08,0,0,1-.4.81,20.35,20.35,0,0,0-10.43,8.62.64.64,0,0,1-.55.49c-1.45.28-3.21.1-3.4,2.24h0l-1.08-.06A1,1,0,0,0,231,86.05Z" transform="translate(-14.48 -20.76)"/><path class="cls-3" d="M179.52,31.15l0,.08,0,0Z" transform="translate(-14.48 -20.76)"/><path class="cls-3" d="M178.55,29.14v0l0-.06h0l-.05.08h.11Z" transform="translate(-14.48 -20.76)"/><path class="cls-3" d="M247.1,154.8h0l0,0Z" transform="translate(-14.48 -20.76)"/><path class="cls-3" d="M179.59,31.25h0l-.07-.09Z" transform="translate(-14.48 -20.76)"/><path class="cls-3" d="M206.83,107l0,0h0V107l-.05,0Z" transform="translate(-14.48 -20.76)"/><path class="cls-3" d="M177.53,38.34c-.39-1-.79-2.06-1.19-3.09l-1.24.66c.3.8.59,1.61.88,2.41Z" transform="translate(-14.48 -20.76)"/><path class="cls-3" d="M288.31,129c.19-.6.38-1.2.58-1.8-.05-.69-.09-1.39-.14-2.08,1.57-3.27,3.38-6.76,2.21-10.3-2.4-7.24-1.71-14.47-1.13-21.79.36-4.56-1.33-6.38-6.53-5.58-3.08.48-7.36,3.18-10-1.5.44-7.42,4.52-12.63,10.27-16.93a64.45,64.45,0,0,0,5.49-5.21c1.67-1.57,4.07-2.55,5.94-3.93a3.29,3.29,0,0,0,1-1,3.17,3.17,0,0,0-.19-2.71,1.07,1.07,0,0,0-.47-.61c-.37-.17-.77.12-1.08.4C288.4,61.27,282.71,66.82,277,72.28a118.65,118.65,0,0,0-15.57,17.57c-2.77,1.26-2.7,4.67-4.87,6.39l-7.14,16.57c-.66,2.52-2.15,4.42-4.65,6.76a8.54,8.54,0,0,1,2.33-6.81c1.62-3,.93-6.18,1.2-9.3,1.28-2.72,2.27-5.63,5.12-7.27,2.88-6,5.91-11.79,12.09-15.21,2.67-1.49,1.39-4.14,1.61-6.35,3.06-.28,4.91-2,6.85-4.36a114.39,114.39,0,0,1,10.77-11.78,57.36,57.36,0,0,1,5.68-4.92c1.73-1.22,4.05-1.49,5.31-3.37a7.7,7.7,0,0,0,1-3.45,144.73,144.73,0,0,0,1-18,1.78,1.78,0,0,0-.24-1.05,1.71,1.71,0,0,0-1.23-.49c-2.54-.26-5.94-.83-8.44-.22-2.23.55-3.95,4.41-5.24,6.25-3.4,4.83-7.09,9.55-10.23,14.55-2.95,4.71-7,8.79-8.6,14.3-1.34,1.13-.29,2.83-1,4.11-4.22,3.45-8.34,6.87-11.11,11.81-2.28,4.07-7.6,5-10.68,8.41-1.24,1.38-3.47,1.78-4,3.83-.44,1.75-1.55,2.21-3.07,1.64-2-.75-1.76-2.23-1-3.77a2.66,2.66,0,0,0,2.16-1.82v-.15l.95-.79.34-.18,3-2.14,7.9-6.35c-.08-.73-.15-1.47-.23-2.2a20.35,20.35,0,0,0-10.43,8.62.68.68,0,0,1-.55.5c-1.45.27-3.21.09-3.4,2.23h0l-1.08-.06a1,1,0,0,0-.52.28c.18.3.36.59.55.88-.19-.29-.37-.58-.55-.88-3.23-1.52-6.4-3.18-9.7-4.55-5.41-2.25-6.2-7.07-5.84-11.69.29-3.78,2.14-7.49,3.62-11.1,1-2.39,3.55-2,5.49-1.79,7,.77,12-1.23,13.39-8.75l.4,0,.07-.39a.5.5,0,0,0-.47.37.49.49,0,0,1,.47-.37,7.67,7.67,0,0,0,.74-.53c6.5-.57,9.67-7.1,16.08-8.44,8.26-1.72,10.38-.47,8.84,7.47-1.64,3.31-4.3,6.11-5,9.89-.81,0-1.12.47-1.07,1.23.48,2.66-1.49,4.4-2.48,6.51l-1,1.36.05-.08c-1.43.12-3.19,0-1.92,2.31a3,3,0,0,0-1.18,3l-1,1a1,1,0,0,0-.95,0c-2.26-.76-2.34.55-2.09,2.17a5.08,5.08,0,0,1-.4.81c.08.73.15,1.47.23,2.2l2.2-3.11c.78-.45,1.45-1,1-2,.86.14,1-.37,1-1,3.11-.87,4.36-3.6,5.84-6,3.5-5.57,6.83-11.24,10.23-16.87l.82-2c0-.35,0-.71,0-1.06.21-.36.41-.73.61-1.09l.94-1.3q4.43-7.6,8.87-15.21a1.9,1.9,0,0,0-2.14-.78c-1,1.11-2.08,2.21-3.11,3.32L272,32.2c-1.25,2.11-2,4.68-4.91,5.29l-2.16-3c-3.55-1.42-6.54.47-9.66,1.57l-7.6.64v.09c-1.59,3.54-3.09,7.16-7.51,8.14a7,7,0,0,0-4.72,2.87c-4.3,6.89-11.58,6.38-18.21,7.55a5.8,5.8,0,0,0-2.33,3.7c1.21,4.82-4,8.53-2,13.59a17.76,17.76,0,0,1-6.3-7.36l-2.17-3.08a7.38,7.38,0,0,1-3.8-5.24,12.18,12.18,0,0,1-3.31-5.24C191,44.26,187.67,35,182.13,27.11l-4,0c.15.67.3,1.35.44,2,1.25.27,1.22,1.17,1.05,2.14A57.12,57.12,0,0,1,190,48.79C184.68,44,181.56,38,179.55,31.23c-.9-.42-2-.76-1.1-2.06-5.11.46-2.42,3.69-2.11,6.08.4,1,.8,2.06,1.19,3.09q2.19,5.5,4.37,11c-3.78-2.9-4.32-7.21-5.92-11-.29-.8-.58-1.61-.88-2.41l-5.76-8.32c-4.61-.67-5.84,1.44-5.6,5.79.34,6.24.06,12.51,0,18.77l1.2,2.53c.56.42.57.85,0,1.28,2.8-.05,4.29,1.21,4.11,4.13-2.51-.24-3.47-2-4.17-4.08l-.35.23-.46-.05-.22.29c0,1.19.07,2.38.1,3.57l2.14,3q7.19,7.38,14.36,14.78c2.55,1.91,5.15,3.76,6.7,6.65l-.29.34.31-.32c2.16.53,3.21,2.25,4.85,4.54H179.58c-4.65,2-9.53-1.17-14.19.61l.3.11v.32l.51,1.81c4.59-1.33,9.06,1,13.63.42l2.61-.44a2.68,2.68,0,0,1,3.43-.12l5.13.52h3.17c4.22-.33,4.16,3.57,5.8,5.78a.47.47,0,0,1,.52.2c.35-.36.7-.71,1.06-1.06C199.72,89.58,193.22,85.72,188,81a123.29,123.29,0,0,1-18.82-20.85c1.45-1.64,2.36,0,3.28.64C184.71,69.54,194,81.26,203.3,92.82c2.89,3.6,3.59,9.1,3.57,14.14,3.75,1.87,7.68.73,11.55.69l-.09-3.12c-.23-.82.07-1,.85-.73l3.09-.3c1.4-.63,1.92-2.59,3.79-2.47.16,0,.41.54.41.84,0,2.76-2.76,2.48-4.18,3.69a3.06,3.06,0,0,1-2.7,2.52c-.1.14-.16.36-.29.42-8.8,3.94-3.79,8.23-.31,12.47l1.21,1.52,2.1.72c2.37-.62,4.58-.88,5.3,2.28.74.77,2,1.36.9,2.75,2.62-1.61,5.54-.82,8.34-1-1.44-3.31,3.32-5,2.2-8.21-4.58-5.06-6-11.56-8.27-17.68l-1.2-1.38c-.5-.78-2-1-1.36-2.36.11-.21.88-.1,1.34-.15,0,.84,0,1.67,0,2.51l1.21,1.38c4.94-2.37,0-3.67-.6-5.44-.84-6.48-7.41-6.57-11.28-8.42-8.54-4.09-14.63-9.58-18.12-18.2-2-4.89-5.55-9.07-6.67-14.36,6.48,6.85,11.39,14.89,17,22.37,2.71,3.6,5.78,7,10,7.63,8.84,1.26,10.73,8.94,14.69,14.51,2,2.86,4.33,6.24,2.41,10.85-.89,2.13,1.12,5.57,3.65,7.48l.31-2c.06-.52-.15-1.29.81-1-1.11-5.08,0-10.42-1.94-15.4-.22-.59-.35-1.56-.72-1.67-1.4-.4-4.68,1.43-3.3-2,.65-1.63,3.79-3,5.89-3.17,2.5-.16,2.37,2.3,2,4.28-.49,2.36,2.71,4.21.95,6.76-1.76,3.57,1.47,8.36-2.82,11.31l.07-.08-.09,0s0,.06,0,.09l-.83.88c-.11.68-.21,1.35-.31,2,0,.44-.07.88-.11,1.32l2.43,4.23c-.2,2-2.76,3-1.73,5.56s-1.15,3.1-3.14,3.41l-4.1.07-1.1.13c-.15.66-.29,1.33-.44,2,6.52,2.36,11.31.83,12.42-4.06.55-2.46.81-5,1.2-7.48.34-.74.69-1.48,1-2.21Q255,107.85,261.72,95a1.33,1.33,0,0,1,.24-.78l.93-3.17a1,1,0,0,1,.85-.25,1.21,1.21,0,0,1,.38-.73l.8-1.14,3.12-2.3a.42.42,0,0,0,0,.66c2.57-.69,3.79,0,3,2.83a7.1,7.1,0,0,0,.17,1c4.2.47,8.32,1.12,12.48-.86,2.44-1.16,3.38.48,2.81,2.9v2c.8,6.92-2.3,14.2,2.23,20.83,1.14,1.68-.49,3.53-1.73,5,0,.68,0,1.36,0,2-.21,1.75-.42,3.51-.64,5.26a8.68,8.68,0,0,0-.11,6.49c1.11,3,.19,5.79-2.05,6.63-6.75,2.56-11.66,9.14-19.68,8.8-5.07-3.43-10.27-1.8-15.33-.11-6.33,2.11-12.44,2.82-19.15,1-3.94-1.06-8.49.17-12.77.33-2.07.07-4.31.32-5.19-2.24a5.13,5.13,0,0,1,2.49-6.12c6.36-2.89,12.14-7.12,19.13-8.61.15-.66.29-1.33.44-2-1.94-1.31-4.61-1.69-5.63-4.22l-1.12.26-3.07-.51a6.51,6.51,0,0,1-3.65-3.09l-1-.65c.17-.58.34-1.16.5-1.75L219,121l-2,.3c-3.53-2.77-7-5.56-9.27-9.54-.28-1.57-.56-3.15-.85-4.72-2.86-2.69-2.56-7.05-5.28-9.81-.36.35-.71.7-1.06,1.06.9,2.79,1.81,5.58,2.71,8.37l.57,3.13c.8.78,1.66,1.53,1.58,2.8-3.14,2.18-3.14,6.92-7,8.49a1.52,1.52,0,0,1-.77.46c-.07.49-.14,1-.2,1.49-.45,3.62-2.89,6.33-6,6.72-3.29.41-3.94-3.48-5.21-5.92a12,12,0,0,1-.7-2.43c-6.6-3.1-12.12-6.91-12.61-15.2a6.42,6.42,0,0,0-4.71-5.78c.56-1.07-.17-1.68-.85-2.32a11.64,11.64,0,0,1-1-6.18l-.51-1.81c-3.06,3.2-1.87,6.69-.69,10.18l.48.19.51-.09c.67.48,1.31,1.42,2,.13,2.38,7.9,3.33,16.58,11.62,21.33.89.09,1.75.22,2.16,1.17,2.58,1.58,3.63,4.18,4.61,6.82,2.72,2.2,3.35,4.19-.57,5.74l-1,1a10.73,10.73,0,0,1-4.34,3.92l-.1.07-1,.86c-.72.75-1.44,1.49-2.15,2.24a14.71,14.71,0,0,1-5.05,5.2l-1.18,1-7,7.22c0,.66.05,1.33.07,2h.76c.13.15.25.31.37.46-.12-.16-.24-.31-.37-.46h-.76l-.06,1.79c-.47,7,3,9.4,9.83,6.66l2.3.43c2.58,1.51,5.34.52,8,.56,5.07-4.31,7.55-10.92,13.18-14.75,1-.66,2-1.17,3.07-1.75,3.28-10.12,11.15-15.87,19.95-20.78a8.86,8.86,0,0,1,4-.79c1.63-.11,3.5,0,3.77,1.69s-1.82,1.8-3,2.12c-8.84,2.31-14.78,8.16-19.6,15.46-.63,1-1,2.23-2.47,2.41L193,166.5l-1.5,1.73,2.36.05a3.68,3.68,0,0,0,.19-.92c.72,0,1.4-1.11,2.13-1l1.75-2.15c2.19-2.37,3.6-5.45,6.59-7.09l2-2.24L218,154.7a10.06,10.06,0,0,1,6.4-.61c4-.29,7.93-.35,11.54,1.78l6.86.09,4.33-1.15c.46-.88,1.28-1,2.17-.9,2.9-2,5.89-3.47,9.52-2l4.13.3,3.15-.23,2.1.89a5.07,5.07,0,0,1,3.75-2.62,5.07,5.07,0,0,0-3.75,2.62l4.15.41a.78.78,0,0,1,.84-.34,1.94,1.94,0,0,1,2.22-1l1.06-1c0-.35,0-.7.05-1,2.08-3.67,6.19-2.86,9.34-4.17a12.12,12.12,0,0,0,2.88-10.23c-1.49-1.9-.26-4.18-.87-6.21A.49.49,0,0,1,288.31,129ZM170.07,45.52h0Zm.16.2.05.06Zm14,17.69c.14-.77.28-1.58,1.51-1.28h0C184.51,61.83,184.37,62.64,184.23,63.41Zm15,17.47h0l.35-.42Zm-2.58-6c-.34.48-.68,1-1,1.43.33-.48.67-.95,1-1.43l-.75-.76h0l.75.76c.37-.48.82-1.08.62-1.56C197.49,73.84,197,74.44,196.67,74.92Zm53.7,15.16.17-.16ZM243,114.83Zm-52.87,32a1.75,1.75,0,0,0-.32,0A1.75,1.75,0,0,1,190.16,146.79Zm1.44-1.33a4.06,4.06,0,0,0,.44,2.38h0A4.06,4.06,0,0,1,191.6,145.46Zm.31-1.07a5.75,5.75,0,0,1,.53-1A5.75,5.75,0,0,0,191.91,144.39Zm1-9.34h0l-1.11.1Zm-13.26,24.2h0Zm0-10.49-.8-1h0c1.89-1.72,3.73-3.52,5.72-5.13.81-.66,2-1.91,3-.32a1.69,1.69,0,0,1-1.29,2.7C183.52,145.44,181.87,147.58,179.63,148.76Zm16.48-16.83c3.2-6.08,7.83-10.07,10.59-15.21C204.23,122,204.82,129.41,196.11,131.93ZM274.16,150l1.16,0Z" transform="translate(-14.48 -20.76)"/><path class="cls-3" d="M238.92,131l-2-.22c-.55.5-1.09,1-1.63,1.52l4.1-.07Z" transform="translate(-14.48 -20.76)"/><path class="cls-19" d="M187.9,61.16s-.06-.09-.12-.17l-.13-.18-.17-.21-.2.15a13.77,13.77,0,0,1-3.14,2,1,1,0,0,1-1.26-.21,2.22,2.22,0,0,1-.46-1.3,1.43,1.43,0,0,1,.48-1.31.47.47,0,0,1,.75,0c.21.26.17.5-.12.73-.11.08-.15.27-.13.56a1.19,1.19,0,0,0,.24.67q.08.11.48-.15l.92-.62q.68-.45,1.62-1.2l.17-.15-.05-.06-.26-.33-.25-.34a.55.55,0,0,1-.12-.35.43.43,0,0,1,.19-.34c.25-.2.51-.14.77.19l.22.29.21.28c.1.12.24.29.44.51l.44.5c.39.5.45.85.17,1.07a.51.51,0,0,1-.34.11A.49.49,0,0,1,187.9,61.16Z" transform="translate(-14.48 -20.76)"/><path class="cls-19" d="M186.51,66.76a2.76,2.76,0,0,1-.64-1.77,2.08,2.08,0,0,1,.83-1.65,3.58,3.58,0,0,1,2.2-.76,2.58,2.58,0,0,1,2.21,1,2.64,2.64,0,0,1,.71,1.8,2.2,2.2,0,0,1-1,1.54,3.74,3.74,0,0,1-2.15.8A2.48,2.48,0,0,1,186.51,66.76Zm3.85-2.62a1.67,1.67,0,0,0-1.45-.58,2.63,2.63,0,0,0-1.58.57,1.15,1.15,0,0,0-.47,1,1.63,1.63,0,0,0,.41,1.08,1.56,1.56,0,0,0,1.42.55,2.78,2.78,0,0,0,1.55-.61,1.31,1.31,0,0,0,.6-.9A1.75,1.75,0,0,0,190.36,64.14Z" transform="translate(-14.48 -20.76)"/><path class="cls-19" d="M189.77,70.83a2.18,2.18,0,0,1-.57-1.35.94.94,0,0,1,.33-.82.56.56,0,0,1,.38-.12.51.51,0,0,1,.38.76.9.9,0,0,0,.23,1,2.79,2.79,0,0,0,.94.76c.39.19.67.22.85.09a.56.56,0,0,0,.23-.65,3.77,3.77,0,0,0-.56-.9,2.88,2.88,0,0,1-.51-1,.9.9,0,0,1,.27-1,1.63,1.63,0,0,1,1.45-.2,2.52,2.52,0,0,1,1.46.89,3.17,3.17,0,0,1,.41.77q.24.62,0,.78a.49.49,0,0,1-.69-.09,2.74,2.74,0,0,1-.25-.43,2.25,2.25,0,0,0-.26-.43,1.87,1.87,0,0,0-.72-.55c-.29-.13-.5-.14-.64,0a.26.26,0,0,0-.09.24.93.93,0,0,0,.15.38l.52.74a2.09,2.09,0,0,1,.43,1.24,1.47,1.47,0,0,1-.62,1.13,1.52,1.52,0,0,1-1.74,0A4.39,4.39,0,0,1,189.77,70.83Z" transform="translate(-14.48 -20.76)"/><path class="cls-19" d="M198,73.45l-.08-.13a4.06,4.06,0,0,0-.57-1q-.17-.19-.39-.42c-.15-.14-.32-.28-.5-.42l-1.13.84,1,1c.32.32.51.53.59.63a.49.49,0,0,1,.12.36.44.44,0,0,1-.19.33.45.45,0,0,1-.66,0l-.58-.62c-.24-.24-.59-.61-1-1.1-.25.17-.45.32-.59.43-.37.29-.56.47-.57.55s.07.17.24.38l.42.51.42.51.15.15a.6.6,0,0,1,.14.15.53.53,0,0,1,.13.35.41.41,0,0,1-.19.35.44.44,0,0,1-.63,0,8.59,8.59,0,0,1-1-1.11,2.49,2.49,0,0,1-.7-1.36c0-.35.34-.75.94-1.23.25-.19.64-.47,1.17-.82s.91-.64,1.16-.83l.27-.25.26-.26a.47.47,0,0,1,.74.06.54.54,0,0,1,.11.28c.22.17.43.34.61.51a3.74,3.74,0,0,1,.47.52A3.68,3.68,0,0,1,198.8,73a.44.44,0,0,1-.15.53.46.46,0,0,1-.34.1A.42.42,0,0,1,198,73.45Z" transform="translate(-14.48 -20.76)"/><path class="cls-19" d="M202.36,80.2a.51.51,0,0,1,0-.58.29.29,0,0,0,.06-.23.81.81,0,0,0-.15-.23,1.55,1.55,0,0,0-1.19-.38,3,3,0,0,0-2,.48,1,1,0,0,0-.36.62.83.83,0,0,0,.17.65,1.48,1.48,0,0,0,.59.44c.09,0,.29.11.61.21a1,1,0,0,1,.41.21.48.48,0,0,1,.1.38.46.46,0,0,1-.58.4,3.1,3.1,0,0,1-1.88-1,1.78,1.78,0,0,1-.39-1.42,1.87,1.87,0,0,1,.72-1.22A3.83,3.83,0,0,1,201,77.8a2.49,2.49,0,0,1,2,.76c.06.09.12.16.16.23a1.45,1.45,0,0,1,.12.19.55.55,0,0,1,.35.2.43.43,0,0,1,0,.61,3.41,3.41,0,0,1-.51.47.47.47,0,0,1-.32.12A.45.45,0,0,1,202.36,80.2Z" transform="translate(-14.48 -20.76)"/><path class="cls-19" d="M204.41,85.64s-.08-.11-.17-.24c-.27.19-.7.52-1.3,1a.44.44,0,0,1-.33.09.46.46,0,0,1-.32-.17.45.45,0,0,1-.1-.35.46.46,0,0,1,.17-.3l.78-.61c.29-.23.73-.54,1.33-1s1-.74,1.33-1c.49-.37.82-.42,1-.14a2.37,2.37,0,0,1,.24.23l.34.4a2.13,2.13,0,0,1,.46,1.29,1.51,1.51,0,0,1-.55,1.29,1.68,1.68,0,0,1-1.58.33A2.47,2.47,0,0,1,204.41,85.64Zm2.22-1.51L206.5,84l-.1-.11-.39.31c-.21.16-.55.39-1,.71a1.38,1.38,0,0,0,.13.2,1.61,1.61,0,0,0,.77.56.91.91,0,0,0,.83-.16.61.61,0,0,0,.19-.61A1.31,1.31,0,0,0,206.63,84.13Z" transform="translate(-14.48 -20.76)"/><path class="cls-19" d="M207.14,92.41c-.11-.15,0-.43.17-.85a5.83,5.83,0,0,1,.56-.84c-.13-.12-.33-.33-.6-.62a7.27,7.27,0,0,0-.61-.62c-.27.08-.7.17-1.28.28a.47.47,0,0,1-.47-.18.54.54,0,0,1-.11-.35.39.39,0,0,1,.17-.33,4.87,4.87,0,0,1,1.29-.36.53.53,0,0,1,.13-.16c.1-.06.24,0,.43.11.66-.1,1.37-.18,2.12-.25,1.07-.09,1.66-.08,1.74,0a.53.53,0,0,1-.05.7l-.75.87c-.45.54-.95,1.15-1.51,1.86a3.13,3.13,0,0,0-.26.43,1.36,1.36,0,0,1-.28.38.41.41,0,0,1-.37.09A.45.45,0,0,1,207.14,92.41Zm2-3.28-1.49.21a2.79,2.79,0,0,1,.35.35,4.81,4.81,0,0,0,.34.36C208.59,89.82,208.86,89.51,209.18,89.13Z" transform="translate(-14.48 -20.76)"/><path class="cls-19" d="M214,94.08l-.54-.18a7.89,7.89,0,0,0-2.09-.16l-2.11.06h0l.81.94c.34.39.61.71.8,1a3.48,3.48,0,0,1,.4.56c.13.26.11.46,0,.59a.42.42,0,0,1-.39.11.54.54,0,0,1-.31-.21,2.58,2.58,0,0,1-.19-.25l-.18-.25c-.22-.28-.57-.7-1-1.25s-.81-1-1-1.24a.65.65,0,0,1-.15-.37.42.42,0,0,1,.18-.35,1.19,1.19,0,0,1,.62-.2c.09,0,.31,0,.67,0l1.95,0a13.55,13.55,0,0,1,2,.12c-.25-.27-.43-.48-.55-.63l-.9-1.12-.07-.09-.08-.08a.48.48,0,0,1-.12-.35.42.42,0,0,1,.18-.35c.25-.2.53-.11.83.26.1.13.25.32.43.59l.43.59.53.63.52.63c.43.55.53.92.29,1.11S214.41,94.19,214,94.08Z" transform="translate(-14.48 -20.76)"/><path class="cls-19" d="M248.63,90.31c.19.28.48.7.88,1.25l.45.53a.5.5,0,0,1,0,.63.44.44,0,0,1-.33.15.41.41,0,0,1-.29-.11,4,4,0,0,1-.77-.93c-.41-.62-.63-1-.68-1l-.6-.74a2.57,2.57,0,0,1-.46-.79.49.49,0,0,1,.1-.44.43.43,0,0,1,.48-.12,5.17,5.17,0,0,1,1,.5A14.09,14.09,0,0,0,250,90a17.73,17.73,0,0,0-1.09-1.77l-.42-.59a.54.54,0,0,1,0-.66c.15-.17.39-.18.71-.05a6.27,6.27,0,0,1,.67.39,15.42,15.42,0,0,0,2,1.1c.59.27.91.43.95.46a.39.39,0,0,1,.14.3.51.51,0,0,1-.12.3c-.14.17-.37.19-.68.07l-.67-.35c-.35-.16-.81-.43-1.41-.78.15.24.38.63.68,1.17l.31.5a3.62,3.62,0,0,1,.26.53.48.48,0,0,1-.08.52.46.46,0,0,1-.54.11l-.55-.23C249.65,90.83,249.15,90.58,248.63,90.31Z" transform="translate(-14.48 -20.76)"/><path class="cls-19" d="M254.23,88a.51.51,0,0,1-.33.19.35.35,0,0,1-.44-.37.51.51,0,0,1,.13-.35.52.52,0,0,1,.33-.19.4.4,0,0,1,.32.08.38.38,0,0,1,.12.3A.53.53,0,0,1,254.23,88Z" transform="translate(-14.48 -20.76)"/><path class="cls-19" d="M259.4,81.69q-.16.18-.75,0a5.12,5.12,0,0,1-.81-.33,7.26,7.26,0,0,1-.43.6c-.19.26-.33.46-.42.61q.17.32.45,1a.4.4,0,0,1-.08.42.45.45,0,0,1-.28.15.35.35,0,0,1-.31-.09,4.21,4.21,0,0,1-.51-1,.35.35,0,0,1-.16-.09c-.07-.07-.06-.19,0-.37-.19-.54-.37-1.12-.55-1.73a3.58,3.58,0,0,1-.27-1.46.47.47,0,0,1,.6-.07l.87.49,1.83,1,.4.14a1.07,1.07,0,0,1,.37.17.37.37,0,0,1,.14.29A.4.4,0,0,1,259.4,81.69Zm-3.12-1.17c.11.3.25.7.42,1.22.05-.09.13-.2.24-.36l.26-.34C257,80.9,256.66,80.73,256.28,80.52Z" transform="translate(-14.48 -20.76)"/><path class="cls-19" d="M262.2,78.38a.46.46,0,0,1-.3.15,5.22,5.22,0,0,0-2.24.75l.77.61a.41.41,0,0,1,.15.28.4.4,0,0,1-.11.31.43.43,0,0,1-.29.15.37.37,0,0,1-.3-.1c-.12-.09-.29-.24-.52-.44l-.52-.45L257,78a.57.57,0,0,1-.2-.32.46.46,0,0,1,.14-.44l.54-.54a2.18,2.18,0,0,1,.63-.41,1.94,1.94,0,0,1,2.09.07,1,1,0,0,1,.35.66,2,2,0,0,1-.14,1,4.82,4.82,0,0,1,1.5-.32.38.38,0,0,1,.27.1.38.38,0,0,1,.14.28A.42.42,0,0,1,262.2,78.38Zm-4.19-1-.25.26,1.23,1,.09-.09a2.72,2.72,0,0,0,.58-1,1.35,1.35,0,0,0,0-.35.43.43,0,0,0-.06-.23.88.88,0,0,0-.79-.09A1.74,1.74,0,0,0,258,77.37Z" transform="translate(-14.48 -20.76)"/><path class="cls-19" d="M263.93,73.59a2.6,2.6,0,0,1,.56,1.57,2.19,2.19,0,0,1-.55,1.48,1.62,1.62,0,0,1-1.12.64,1.82,1.82,0,0,1-1.25-.52,4.15,4.15,0,0,1-1.33-2.93,1.43,1.43,0,0,1,.33-.92,2.13,2.13,0,0,1,.68-.46c.4-.2.66-.23.81-.11a.42.42,0,0,1,.14.28.41.41,0,0,1-.1.32,1.1,1.1,0,0,1-.4.19,1.27,1.27,0,0,0-.5.32c-.12.14-.13.45,0,.94a2.86,2.86,0,0,0,1,1.72,1.07,1.07,0,0,0,.62.33.74.74,0,0,0,.54-.33,1.3,1.3,0,0,0,.34-.79,1.65,1.65,0,0,0-.26-.95,3.64,3.64,0,0,0-.58,1.12.56.56,0,0,1-.09.17.43.43,0,0,1-.32.14.39.39,0,0,1-.28-.1c-.24-.2-.17-.62.22-1.25a9.19,9.19,0,0,1,.87-1.16.43.43,0,0,1,.59-.06A.39.39,0,0,1,263.93,73.59Z" transform="translate(-14.48 -20.76)"/><path class="cls-19" d="M264.75,69.43l-.1.09a4.09,4.09,0,0,0-.73.63c-.1.12-.19.25-.29.39a4.68,4.68,0,0,0-.28.5c.21.17.5.44.9.8.06-.1.3-.42.69-1,.22-.32.37-.52.44-.6a.39.39,0,0,1,.28-.15.38.38,0,0,1,.32.09.39.39,0,0,1,.06.56l-.43.59c-.16.24-.42.59-.76,1.06l.46.42a1.65,1.65,0,0,0,.56.39s.13-.09.28-.27l.37-.43.36-.44L267,72a.76.76,0,0,1,.1-.15.45.45,0,0,1,.27-.16.38.38,0,0,1,.33.1.37.37,0,0,1,.08.53,7.54,7.54,0,0,1-.78,1c-.43.5-.78.77-1.05.8a1.75,1.75,0,0,1-1.19-.58c-.21-.17-.5-.45-.89-.84s-.69-.66-.89-.83a1.85,1.85,0,0,0-.26-.18,2,2,0,0,1-.26-.19.39.39,0,0,1-.08-.62.5.5,0,0,1,.22-.13,6.18,6.18,0,0,1,.34-.59c.12-.18.24-.34.36-.49a3.81,3.81,0,0,1,.94-.81.41.41,0,0,1,.48,0,.5.5,0,0,1,.14.27A.41.41,0,0,1,264.75,69.43Z" transform="translate(-14.48 -20.76)"/><path class="cls-19" d="M270.74,67.34a4.28,4.28,0,0,1,.33.35.41.41,0,0,1,0,.59.78.78,0,0,1-.5.21,23.93,23.93,0,0,1-4,.07l.73.64.56.47c.25.2.44.35.56.46.45.39.59.69.39.91a.46.46,0,0,1-.33.18.39.39,0,0,1-.3-.1,3,3,0,0,1-.27-.26l-.27-.25-.4-.36-.4-.36-.45-.36-.44-.37c-.1-.08-.24-.19-.44-.33s-.35-.24-.44-.32a.47.47,0,0,1-.15-.33.52.52,0,0,1,.13-.36c.1-.12.3-.16.62-.13a20,20,0,0,0,4.23,0c-.05,0-.16-.15-.35-.3q-1.14-1-1.56-1.29l-.27-.18a2.36,2.36,0,0,1-.28-.2.38.38,0,0,1,0-.61c.22-.25.71,0,1.49.62l.36.32C270.06,66.76,270.54,67.18,270.74,67.34Z" transform="translate(-14.48 -20.76)"/><path class="cls-19" d="M271.38,62.17l-.51.54q-.35.34-.51.54c.18.14.51.39,1,.74s.75.56,1,.75a2.58,2.58,0,0,0,.25.19,1.65,1.65,0,0,1,.25.18.91.91,0,0,1,.25.34.4.4,0,0,1-.06.42.46.46,0,0,1-.27.15.39.39,0,0,1-.32-.08l-.09-.1-.09-.09a3.55,3.55,0,0,0-.34-.26c-.15-.12-.26-.2-.33-.27s-.5-.39-.89-.66l-.89-.65-.11.11a4,4,0,0,1-.77.75.39.39,0,0,1-.53,0,.38.38,0,0,1-.14-.26.37.37,0,0,1,.12-.34l.35-.33.35-.35.35-.42.36-.43.48-.5c.22-.22.38-.38.48-.5a.5.5,0,0,1,.29-.16.42.42,0,0,1,.3.1.41.41,0,0,1,.15.28A.44.44,0,0,1,271.38,62.17Z" transform="translate(-14.48 -20.76)"/><path class="cls-19" d="M273.64,59.65l-.59.55c.26.26.63.59,1.1,1l1,.89.53-.63a.41.41,0,0,1,.59-.05.41.41,0,0,1,0,.59l-.33.4-.34.4a5.76,5.76,0,0,0-.36.5,4.51,4.51,0,0,1-.36.5.45.45,0,0,1-.3.16.41.41,0,0,1-.44-.39.51.51,0,0,1,.12-.32,3.81,3.81,0,0,0,.35-.47c-.19-.15-.54-.45-1.05-.89s-.81-.71-1.16-1.06l-.42.5a.41.41,0,0,1-.29.16.39.39,0,0,1-.31-.1.37.37,0,0,1-.14-.28.42.42,0,0,1,.08-.28q.15-.21.57-.69a11.15,11.15,0,0,1,1.08-1,.38.38,0,0,1,.55,0,.36.36,0,0,1,.14.31A.41.41,0,0,1,273.64,59.65Z" transform="translate(-14.48 -20.76)"/><path class="cls-19" d="M279.42,57.32a3.31,3.31,0,0,1,.33.36.41.41,0,0,1,0,.59.8.8,0,0,1-.5.2,23.66,23.66,0,0,1-4,.08l.72.64.56.46.56.46c.46.39.59.7.4.92a.5.5,0,0,1-.34.18.43.43,0,0,1-.3-.11l-.27-.25-.27-.25-.4-.36-.4-.36-.45-.37-.44-.37-.44-.32a5.45,5.45,0,0,1-.44-.33.42.42,0,0,1-.14-.33.47.47,0,0,1,.12-.36.75.75,0,0,1,.62-.12,21.46,21.46,0,0,0,4.23,0c0-.05-.16-.15-.34-.31-.77-.64-1.29-1.07-1.57-1.29l-.27-.18-.28-.19a.38.38,0,0,1,0-.61c.22-.25.72,0,1.49.62l.37.31C278.74,56.74,279.23,57.16,279.42,57.32Z" transform="translate(-14.48 -20.76)"/><path class="cls-19" d="M282.81,54.69c-.11.12-.35.12-.74,0a5.31,5.31,0,0,1-.81-.33c-.09.13-.23.33-.44.6a7,7,0,0,0-.42.61q.17.32.45,1a.4.4,0,0,1-.07.42.51.51,0,0,1-.29.15.36.36,0,0,1-.31-.09,4.21,4.21,0,0,1-.51-1,.42.42,0,0,1-.16-.09c-.06-.07-.06-.19,0-.37-.19-.54-.37-1.12-.55-1.73-.25-.88-.34-1.37-.26-1.46s.34-.19.6-.07l.87.49c.52.28,1.13.6,1.82,1a2.78,2.78,0,0,0,.41.15,1.17,1.17,0,0,1,.37.17.4.4,0,0,1,0,.59Zm-3.11-1.17c.1.3.24.7.41,1.22.05-.09.13-.2.24-.36s.23-.29.26-.34Z" transform="translate(-14.48 -20.76)"/><path class="cls-19" d="M284.62,52.75a2,2,0,0,1-1.06.7.83.83,0,0,1-.75-.15.45.45,0,0,1-.16-.29.37.37,0,0,1,.11-.32.41.41,0,0,1,.47-.12.8.8,0,0,0,.8-.35,2.41,2.41,0,0,0,.49-.92c.11-.35.09-.59-.06-.71a.48.48,0,0,0-.59-.09,3.32,3.32,0,0,0-.67.61,2.37,2.37,0,0,1-.77.59.78.78,0,0,1-.91-.06,1.39,1.39,0,0,1-.41-1.18,2.12,2.12,0,0,1,.52-1.36,2.57,2.57,0,0,1,.59-.46c.32-.2.54-.25.65-.16a.4.4,0,0,1,.14.27.39.39,0,0,1-.1.32,2,2,0,0,1-.32.28,2.19,2.19,0,0,0-.33.29,1.64,1.64,0,0,0-.35.68c-.06.27,0,.45.08.54a.2.2,0,0,0,.21,0,.7.7,0,0,0,.3-.18l.54-.56a1.93,1.93,0,0,1,1-.56,1.3,1.3,0,0,1,1.37,1.78A3.66,3.66,0,0,1,284.62,52.75Z" transform="translate(-14.48 -20.76)"/><path class="cls-19" d="M181.27,163.42a2.42,2.42,0,0,1-1.37.79A1,1,0,0,1,179,164a.57.57,0,0,1-.18-.37.49.49,0,0,1,.16-.4.51.51,0,0,1,.6-.12,1,1,0,0,0,1-.39,3,3,0,0,0,.67-1.1c.15-.44.14-.74,0-.91a.61.61,0,0,0-.73-.15,4,4,0,0,0-.88.73,3.17,3.17,0,0,1-1,.68,1,1,0,0,1-1.14-.13,1.77,1.77,0,0,1-.44-1.5,2.66,2.66,0,0,1,.75-1.67,3.11,3.11,0,0,1,.76-.54c.42-.23.7-.28.83-.16a.52.52,0,0,1,.16.34.44.44,0,0,1-.15.4,2.58,2.58,0,0,1-.42.34,2.31,2.31,0,0,0-.43.33,2,2,0,0,0-.48.84c-.1.32-.08.55.06.68a.28.28,0,0,0,.27.06.86.86,0,0,0,.38-.21l.71-.66a2.33,2.33,0,0,1,1.28-.63,1.61,1.61,0,0,1,1.59,2.31A4.73,4.73,0,0,1,181.27,163.42Z" transform="translate(-14.48 -20.76)"/><path class="cls-19" d="M186.87,157.44c-.14.14-.46.13-.93-.05a5.84,5.84,0,0,1-1-.46c-.11.15-.3.39-.58.72s-.44.55-.56.73c.12.28.28.71.49,1.31a.52.52,0,0,1-.13.52.51.51,0,0,1-.36.17.45.45,0,0,1-.38-.13,5.18,5.18,0,0,1-.57-1.3.44.44,0,0,1-.19-.12c-.09-.1-.07-.25.05-.47-.21-.69-.4-1.42-.58-2.2-.26-1.12-.33-1.73-.23-1.84a.59.59,0,0,1,.76,0l1.05.67,2.21,1.32c.07,0,.24.1.5.21a1.26,1.26,0,0,1,.46.24.46.46,0,0,1,.15.37A.5.5,0,0,1,186.87,157.44Zm-3.82-1.66c.11.37.25.89.44,1.54a3.16,3.16,0,0,1,.33-.42l.34-.42C183.88,156.3,183.51,156.06,183.05,155.78Z" transform="translate(-14.48 -20.76)"/><path class="cls-19" d="M191.08,151.57a5.08,5.08,0,0,1,.39.46.5.5,0,0,1,0,.74,1,1,0,0,1-.63.23,29.79,29.79,0,0,1-5-.17l.86.85.67.61.67.62c.54.51.69.9.43,1.17a.6.6,0,0,1-.43.2.51.51,0,0,1-.37-.15c-.08-.07-.18-.18-.32-.33a3.92,3.92,0,0,0-.32-.34l-.47-.48-.48-.47-.54-.49-.53-.49-.53-.44c-.24-.18-.41-.33-.52-.43a.53.53,0,0,1-.16-.42.61.61,0,0,1,.18-.45c.13-.13.39-.17.79-.11A25.05,25.05,0,0,0,190,152l-.42-.4q-1.37-1.29-1.86-1.71l-.34-.25c-.14-.1-.25-.19-.33-.26a.47.47,0,0,1,0-.76c.29-.3.89,0,1.82.87l.43.42C190.28,150.8,190.85,151.36,191.08,151.57Z" transform="translate(-14.48 -20.76)"/><path class="cls-19" d="M193.82,145.75c.22.37.56.91,1,1.63l.52.69c.19.33.19.59,0,.79a.52.52,0,0,1-.41.17.55.55,0,0,1-.36-.15,5.85,5.85,0,0,1-.91-1.23c-.46-.79-.71-1.23-.77-1.32l-.7-1a3.17,3.17,0,0,1-.52-1,.58.58,0,0,1,.16-.55.54.54,0,0,1,.61-.13,7.28,7.28,0,0,1,1.21.7,19.11,19.11,0,0,0,1.9,1.12c-.35-.73-.76-1.49-1.24-2.29l-.49-.76a.67.67,0,0,1,0-.83c.2-.2.49-.2.89,0a6.22,6.22,0,0,1,.82.53,19.79,19.79,0,0,0,2.4,1.51,10.73,10.73,0,0,1,1.16.64.46.46,0,0,1,.15.39.54.54,0,0,1-.16.36c-.19.2-.48.21-.86,0l-.82-.49c-.41-.22-1-.58-1.7-1.07.17.32.42.82.77,1.52l.35.64a3.92,3.92,0,0,1,.29.68.6.6,0,0,1-.82.76l-.66-.34C195.07,146.48,194.45,146.13,193.82,145.75Z" transform="translate(-14.48 -20.76)"/><path class="cls-19" d="M198.73,138.52c-.09.09-.35.31-.77.65.31.35.75.79,1.31,1.32l1.24,1.18c.23-.25.46-.5.71-.75a.5.5,0,0,1,.37-.17.51.51,0,0,1,.53.51.52.52,0,0,1-.16.38l-.45.47-.45.48a5.1,5.1,0,0,0-.48.6,6.16,6.16,0,0,1-.49.6.59.59,0,0,1-.38.18.55.55,0,0,1-.37-.14.5.5,0,0,1-.15-.37.54.54,0,0,1,.17-.4,5.54,5.54,0,0,0,.46-.56l-1.25-1.18c-.5-.48-1-.95-1.38-1.42l-.56.62a.6.6,0,0,1-.37.17.5.5,0,0,1-.38-.15.46.46,0,0,1-.16-.35.57.57,0,0,1,.12-.35c.14-.17.39-.44.77-.83a12.31,12.31,0,0,1,1.41-1.23.53.53,0,0,1,.85.43A.5.5,0,0,1,198.73,138.52Z" transform="translate(-14.48 -20.76)"/><path class="cls-19" d="M204.52,135.78a3.28,3.28,0,0,1,.6,2,2.76,2.76,0,0,1-.8,1.81,2,2,0,0,1-1.45.73,2.24,2.24,0,0,1-1.51-.74,4.67,4.67,0,0,1-1.12-1.72,4.81,4.81,0,0,1-.35-2,1.74,1.74,0,0,1,.47-1.13,3,3,0,0,1,.89-.54c.5-.21.84-.24,1-.07a.5.5,0,0,1,.16.36.48.48,0,0,1-.15.39,1.68,1.68,0,0,1-.51.21,1.5,1.5,0,0,0-.65.37c-.16.16-.19.55-.11,1.17a3.74,3.74,0,0,0,1.1,2.22,1.49,1.49,0,0,0,.76.46,1,1,0,0,0,.71-.39,1.74,1.74,0,0,0,.47-1,2.05,2.05,0,0,0-.26-1.2,4.4,4.4,0,0,0-.81,1.35.72.72,0,0,1-.12.21.55.55,0,0,1-.4.16.57.57,0,0,1-.36-.14c-.28-.27-.16-.79.37-1.56a11.66,11.66,0,0,1,1.16-1.39.52.52,0,0,1,.38-.17.48.48,0,0,1,.37.14A.47.47,0,0,1,204.52,135.78Z" transform="translate(-14.48 -20.76)"/><path class="cls-19" d="M209,133.41a2.53,2.53,0,0,1,0,.91,1.8,1.8,0,0,1-.47.92,2.32,2.32,0,0,1-1.26.79,3.28,3.28,0,0,1-2.65-1.13l-.38-.39q-.26-.27-.39-.39l-.31-.31c-.13-.14-.24-.24-.31-.31a1.5,1.5,0,0,1-.33-.46q-.15-.36,0-.54a.62.62,0,0,1,.36-.18.44.44,0,0,1,.38.13l.47.44c.2.21.36.35.46.45l.38.39.38.39a4.62,4.62,0,0,0,.87.64,1.55,1.55,0,0,0,.93.23,1.47,1.47,0,0,0,.62-.46c.48-.48.38-1.19-.3-2.15a13.28,13.28,0,0,0-1.7-1.87.75.75,0,0,1-.21-.37.53.53,0,0,1,.15-.53.47.47,0,0,1,.41-.15.61.61,0,0,1,.29.14,15,15,0,0,1,1.61,1.72A4.89,4.89,0,0,1,209,133.41Z" transform="translate(-14.48 -20.76)"/><path class="cls-19" d="M210,126.35a.45.45,0,0,1-.13.1,4.76,4.76,0,0,0-.95.75,4.87,4.87,0,0,0-.39.47q-.19.27-.39.6c.25.23.6.58,1.07,1.06l.93-1.17c.3-.38.5-.62.59-.71a.55.55,0,0,1,.37-.18.54.54,0,0,1,.39.14.48.48,0,0,1,0,.71l-.57.7c-.22.29-.57.72-1,1.28.22.23.41.42.55.55a2.12,2.12,0,0,0,.68.53s.16-.11.37-.32.27-.28.48-.52l.49-.52.14-.17.13-.18a.65.65,0,0,1,.36-.18.51.51,0,0,1,.47.81,10.84,10.84,0,0,1-1,1.19,2.61,2.61,0,0,1-1.37.93,2.16,2.16,0,0,1-1.45-.8c-.25-.23-.6-.6-1.06-1.11s-.81-.87-1.06-1.1a1.93,1.93,0,0,0-.31-.25,2.11,2.11,0,0,1-.31-.24c-.28-.27-.3-.53-.05-.78a.5.5,0,0,1,.28-.16,8.12,8.12,0,0,1,.46-.72,7.41,7.41,0,0,1,.48-.58,4.64,4.64,0,0,1,1.23-1,.49.49,0,0,1,.6.08.53.53,0,0,1,.15.34A.46.46,0,0,1,210,126.35Z" transform="translate(-14.48 -20.76)"/><path class="cls-19" d="M216.73,126.15a6.19,6.19,0,0,1-.71,1.25,9,9,0,0,1-.87,1.11c-.44.45-.85.49-1.25.11l-.82-.89c-.75-.8-1.62-1.67-2.6-2.6a.46.46,0,0,1-.16-.36.48.48,0,0,1,.15-.38.52.52,0,0,1,.75,0c1,.93,1.86,1.81,2.64,2.65l.63.69a8.71,8.71,0,0,0,1.28-2l.1-.14a.51.51,0,0,1,.4-.16.56.56,0,0,1,.35.15A.5.5,0,0,1,216.73,126.15Z" transform="translate(-14.48 -20.76)"/></g></svg>